<svg width="50" height="44" viewBox="0 0 50 44" fill="none" xmlns="http://www.w3.org/2000/svg">
<path fill-rule="evenodd" clip-rule="evenodd" d="M7.85047 15.927C7.85291 15.927 8.12358 15.6747 7.83341 15.7881C7.65784 15.8551 7.72368 15.9368 7.85047 15.927ZM7.82853 16.9792L7.86145 16.7049C7.80293 16.7451 7.57371 16.5793 7.82853 16.9792ZM14.9097 10.6552C15.1133 10.2687 14.9645 10.4235 14.9097 10.3199C14.7524 10.6113 14.7463 10.3833 14.9097 10.6552ZM20.551 7.56329C20.7399 7.23898 20.6741 7.26458 20.6412 6.83054C20.2632 6.67205 20.3888 6.72691 20.134 6.54403C20.1437 6.62206 20.4815 7.39626 20.551 7.56329ZM22.1457 5.03831C22.2493 5.43455 22.3371 5.30897 22.4212 5.93199C22.7138 5.4248 22.815 5.35408 22.8406 4.66889L22.1457 5.03831ZM23.9123 3.72522C24.5024 4.17389 24.0647 3.77643 24.3927 4.43602C24.8194 4.07392 24.6231 3.55941 25.112 3.02906L25.5363 3.55088C25.6131 3.04247 25.4705 3.01686 25.7119 2.61209C26.2544 2.8925 25.7765 2.66085 26.0727 3.21437L26.5226 1.76108C25.9569 1.93055 24.5304 3.28753 23.9123 3.72522ZM27.2432 2.55113L27.2822 1.19293L26.8299 1.35874C26.7482 1.81351 26.7616 1.42702 26.9189 1.91592C26.5202 2.3085 26.3654 2.63525 26.6726 3.23388L26.8189 2.27193L27.2432 2.55113ZM36.002 11.7817C36.1909 11.5464 36.1117 12.1414 36.3348 11.3782C35.8252 11.5391 35.9947 11.1404 36.002 11.7817ZM37.9551 11.5416C38.2892 11.7659 38.0917 11.6488 38.3148 11.9707C38.5708 11.7488 38.5721 11.5611 38.6062 11.2429L36.6152 11.3794C36.5311 11.6245 36.586 11.5379 36.6969 11.961C37.4297 11.8208 36.7554 11.7171 37.5662 11.9732C37.7393 11.6013 37.6186 11.6842 37.9551 11.5416ZM44.3413 11.772C44.6181 11.2831 44.3999 11.6367 44.3596 11.4318L43.789 11.427L44.0768 11.9988C44.2621 11.8963 44.1475 12.1109 44.3413 11.772ZM47.2382 12.7437L47.3601 12.1158L46.9578 11.5489C46.5054 11.5184 46.5384 11.4404 46.2616 11.6391C46.6078 11.8159 46.6335 11.6866 46.8578 12.1C47.0248 12.4072 46.9882 12.4755 47.2382 12.7437ZM47.5357 11.722C47.8075 11.7257 47.7405 11.6488 47.5747 11.5952C47.3662 11.5269 47.5344 11.722 47.5357 11.722ZM48.1575 11.633C48.066 11.8622 48.3184 12.6827 48.4025 12.9388C48.6634 12.751 48.6037 12.512 48.5354 12.2207C48.4086 11.683 48.4732 11.7647 48.1575 11.633ZM49.6656 11.7842L48.7146 11.6379L48.9085 12.3548C49.4827 12.1182 49.256 12.1438 49.4608 12.534L49.6656 11.7842ZM48.9743 18.4837C48.9256 17.6388 49.2194 13.3326 48.9975 13.0205L48.5903 17.7424C48.3208 17.6473 48.2745 17.7717 48.3915 16.8207C48.444 16.3977 48.4537 16.1526 48.4671 15.721C48.4879 15.0614 48.8353 13.9641 48.5183 13.4521C48.1392 14.0458 48.5366 15.148 48.3123 15.8612C47.7966 17.501 48.4866 22.1816 47.9173 23.374C47.5405 22.9204 47.8649 21.444 47.8807 20.7575L47.9636 14.759C47.9831 14.0263 48.0075 14.0909 47.8514 13.396C47.7356 12.879 47.8563 12.434 47.7515 11.9195C47.5698 12.2755 47.7844 12.228 47.6222 12.6559C47.3491 13.3752 47.5027 12.5852 47.1858 13.1997C47.215 14.1799 47.354 16.9658 46.6969 17.6413C46.7237 16.9475 46.8931 16.2111 46.9309 15.482C46.9443 15.2248 47.1748 13.3423 46.72 13.3301C46.2738 13.3179 46.4079 13.88 46.3969 14.5176C46.3884 15.0151 46.4042 15.465 46.425 15.96C46.5054 17.9546 46.6261 22.7558 45.9739 24.353L45.908 24.025C45.908 24.0226 45.947 23.6398 45.9483 23.6263L46.1921 20.8502C46.275 19.6286 46.3079 18.0155 46.2128 16.8C46.0104 16.1233 45.9373 17.2767 46.0421 16.0551C46.1043 15.3418 46.2787 14.2031 45.958 13.5801C45.6227 12.9327 45.8007 13.246 45.7727 12.4718C45.4679 12.8742 45.7629 12.8546 45.2948 13.0485L45.1899 12.0414C44.6535 12.6535 45.3704 16.0514 44.9058 17.0256C44.3865 16.7354 45.2533 13.1875 44.4364 12.3853C43.9049 13.5545 43.9841 13.6423 44.1048 14.9578C44.2414 16.4428 44.5559 23.1277 44.145 23.8007C43.889 23.0655 44.2267 14.2519 43.6964 12.7547C43.5464 13.0229 43.9756 15.7746 43.3562 16.5818C42.999 15.8941 43.6671 14.175 43.3404 13.2167C43.0904 12.484 42.9478 12.9339 42.8125 12.512C43.3562 12.2292 43.6805 12.2706 43.5732 11.4306L40.2448 11.4111C40.5167 11.8073 40.4862 11.4733 40.8593 12.0744C41.3384 11.8671 40.7898 11.7952 41.3799 11.9402C42.2858 13.6569 41.8164 14.8566 41.8956 16.6805C41.9578 18.0765 42.0724 20.6795 41.6969 21.9828C41.4762 21.5708 41.8383 18.3447 41.6981 17.4035C41.6006 16.7537 41.5006 17.0804 41.5615 16.3245C41.6408 15.3589 41.8115 13.8093 41.308 12.9717C40.3033 12.9473 40.7313 13.6849 40.7276 14.7603C40.7252 15.2857 40.7959 16.5306 40.3679 16.8012C40.3009 16.6634 40.5435 13.5935 40.3119 12.6388C40.0912 12.8681 40.1595 12.9095 39.8851 12.8339C39.3072 11.7891 40.4606 12.7315 39.9156 11.3477L39.0305 11.255C38.9963 11.7318 38.939 11.4989 39.1768 11.9488C39.5084 11.516 39.2085 11.5416 39.7266 11.5294C39.4791 12.8583 39.1512 12.1841 39.306 13.9227C39.3816 14.7566 39.4389 15.732 39.4621 16.5684L39.2926 21.7037C39.2292 21.967 39.256 21.8731 39.1756 21.9828C38.9598 20.7039 39.5133 18.2082 39.2365 16.928C39.0268 15.9563 38.8159 17.6547 39.0061 14.842C39.0646 13.9678 39.0414 13.3131 38.761 12.4913C38.2465 12.7169 38.8671 12.6852 38.1965 12.7047L37.9941 12.0548C37.4443 12.9656 37.6954 13.04 37.7576 14.0348C37.7979 14.6859 37.9247 15.8527 37.4906 16.3294C37.3602 16.1063 37.4297 15.7978 37.4662 15.4796C37.5772 14.4945 37.6503 13.1204 37.1151 12.2694C36.4799 12.8559 36.9005 15.6783 36.903 16.6805C36.9054 17.3852 36.7615 20.8429 36.6189 21.333L36.553 21.1806C36.425 20.5661 36.5872 19.7956 36.6396 19.1762C36.7567 17.7949 36.8322 12.8071 36.375 11.9963C36.0361 12.3475 36.3263 12.3913 35.9678 12.5291C35.4619 11.9354 36.2361 11.8781 35.5704 11.3757L35.4692 11.8354C35.5435 13.1277 36.0446 14.9773 35.5545 16.344C35.0705 15.8088 35.8264 12.7339 35.0741 11.5708C34.7401 11.9756 35.1327 11.8805 34.8352 12.3389C34.3682 11.7427 35.0754 11.783 34.4743 11.3209C34.2146 11.672 34.3329 12.1365 34.3755 12.584L34.5243 16.5598C34.5243 17.0499 34.2768 21.5671 34.2341 21.6573C33.7952 20.977 34.4048 17.3304 34.2926 16.1892C34.2049 15.2955 33.9098 16.1977 33.8818 13.6764C33.8744 12.9729 33.6843 11.9183 33.377 11.3063C32.198 11.2343 30.6155 11.0429 29.4731 11.1953C29.4743 12.0548 31.1312 14.4774 30.2729 16.4501C29.7474 16.1111 30.5716 13.8361 29.6816 12.7669C29.4548 13.2399 29.9632 19.8785 29.4134 21.0916C29.3939 21.0709 29.4036 21.0306 29.3707 21.0185C29.339 21.005 29.339 20.9587 29.3341 20.9404C29.3024 20.8063 29.2963 20.9282 29.2854 20.6466C29.2061 18.5166 29.9145 12.701 28.9257 11.0892C28.2954 11.0185 27.9735 11.1307 27.3724 11.2624C27.2883 9.12387 28.071 4.44334 27.8601 0.99176C27.7053 1.30875 27.6845 1.83179 27.6431 2.27193C27.5273 3.47041 27.5029 2.82545 26.9823 3.12903C26.9481 3.86543 26.8786 4.46772 26.8213 5.17974C26.7189 6.45868 26.9298 7.98269 26.7543 9.31651C26.6897 9.80297 26.8396 9.81394 26.8969 10.137C26.975 10.5735 26.8287 10.643 26.3775 10.615C26.1471 9.61277 26.5324 9.76274 26.469 8.87881C26.4068 8.00708 26.3568 8.24238 26.5019 7.2658C26.6641 6.1612 26.5385 4.58476 26.4263 3.457C25.7009 4.18121 25.9374 5.44552 25.9082 6.47697C25.8862 7.27433 25.7655 11.021 26.0813 11.6269C26.5714 12.5657 26.8738 15.5467 26.4324 16.3757C25.8362 15.799 26.6994 12.7254 25.9472 11.7403C25.6948 13.3301 25.8582 19.8249 25.3022 20.6868C25.2632 20.5625 25.5143 15.8697 25.5607 15.2431C25.6826 13.5654 25.7582 11.0588 25.6497 9.39332C25.6058 9.93586 25.646 10.337 25.3522 10.704C25.0401 10.0358 25.8728 5.0444 25.0291 3.7362C24.8133 4.20803 24.8365 4.60061 24.3927 4.79569C24.0562 4.54453 24.1574 4.43602 24.0793 4.27387C23.5965 4.9615 23.9574 8.93977 23.9062 10.198L23.7843 12.2524C23.4076 11.9707 23.6538 9.12631 23.6453 8.51793C23.6234 6.81104 23.9269 5.79544 23.1918 4.87981C22.7577 5.4443 22.9686 5.68083 22.6675 6.19534C22.3603 6.72081 22.4078 6.11121 22.4505 6.76471C22.4736 7.12315 22.5236 7.24507 22.5005 7.67545C22.4358 8.83492 22.2542 10.187 22.2444 11.327C21.8567 11.1112 21.9616 10.9405 22.0274 10.3662C22.1676 9.13606 22.2969 7.68399 22.0835 6.47453C21.8141 6.64035 21.9311 6.82567 21.6495 7.09633L21.5361 6.50745C21.5385 6.27946 21.58 6.20265 21.5678 5.92223C21.3081 5.98319 21.5105 5.81251 21.2422 6.18924L21.1203 5.79178L20.5631 6.23069C20.9716 6.7769 20.996 6.77446 20.9618 7.56207C20.9118 8.68983 20.607 8.10705 20.568 8.98854C20.5339 9.75664 20.7107 11.9012 20.4315 12.3974C19.7048 11.2672 20.7826 9.34699 20.234 8.10827C19.9877 7.55353 20.173 8.34724 19.9682 7.65229C19.8475 7.24751 20.0742 7.38528 19.828 6.94393C19.4951 6.85737 19.4086 7.00977 19.1489 7.22922C19.1733 7.79981 19.4805 8.0339 19.1111 8.50695C18.8258 8.07048 19.1099 7.91808 18.8477 7.48526C18.3954 7.66326 18.6978 8.11925 18.8063 8.57767C19.2452 10.4223 19.1733 18.2313 18.51 19.1494C18.2186 18.5057 19.1562 14.7481 18.855 13.4484C18.5856 12.2902 18.3966 13.9336 18.5039 10.8015C18.5734 8.76908 18.3832 9.52499 18.1918 8.73494L18.1016 8.20215C18.093 8.17167 18.0723 8.13022 18.0638 8.10583C18.0552 8.08267 18.0406 8.04122 18.0211 8.01317C17.4347 8.36552 17.6712 8.08267 17.648 8.63375C17.6285 9.10315 17.8589 9.24579 17.4371 9.47135L17.3932 8.5862L16.708 8.85565C17.0055 10.2248 17.1189 10.8332 16.9994 12.3097C16.9921 12.3926 16.975 12.7303 16.9714 12.7474C16.9116 13.1265 16.9238 12.7717 16.8385 13.218C16.6483 14.225 16.7129 17.2804 16.4483 17.9863C16.074 17.5681 16.5349 14.197 16.5763 13.6837C16.6678 12.5352 16.5264 11.4574 16.53 10.3175C16.5312 9.64325 16.6727 9.61643 16.352 9.20068C15.7022 9.6079 16.4434 9.95781 15.9558 10.6308C15.9387 10.6113 15.9533 10.5699 15.9241 10.5589C15.8936 10.5467 15.8985 10.4991 15.8948 10.4821C15.8143 10.1163 15.9375 10.0614 15.7497 9.68105C15.3913 9.93464 15.5888 11.2989 15.5546 12.1195C15.529 12.7022 15.5083 14.3067 15.2693 14.6615C14.9767 14.2043 15.273 11.6903 15.2681 10.9015C14.7061 11.3258 15.0962 11.3599 14.6841 11.7756C14.6683 11.7476 14.689 11.7025 14.6536 11.6854L14.4147 10.6759C13.8599 11.0075 14.1989 12.9924 14.1209 14.2519C14.0806 14.8993 13.9587 17.4718 13.6954 17.8449C13.46 17.4328 13.8075 15.137 13.7929 14.3945C13.493 15.187 13.8587 16.0197 13.3491 16.4403C12.9321 15.6698 13.7344 13.6093 13.6673 12.6096L13.6954 11.2916C13.3454 11.8073 13.7149 12.1938 13.1211 12.5559C12.8956 12.2268 13.0931 12.3865 13.0638 12.0987L12.9833 11.7659C12.5359 12.2328 12.9016 12.4925 12.3981 12.9656C12.3823 12.9412 12.4018 12.8949 12.3701 12.8839L12.2628 12.3865C11.58 12.9741 12.0677 13.5386 11.869 14.3311C11.7849 14.6676 11.7044 14.97 11.6556 15.3467L11.5605 16.1685C11.4605 16.5037 11.6288 16.2148 11.441 16.4135C11.1362 16.0002 11.5898 14.2677 11.3776 13.2582L10.9972 13.7971L10.9338 13.3204C10.2462 13.7032 10.801 14.1409 10.2291 14.7676C10.2109 14.7432 10.2279 14.6969 10.195 14.6822C10.1609 14.6688 10.1694 14.6152 10.1657 14.5957L10.1036 13.9129C9.75975 14.2726 10.0207 14.6493 9.96336 15.3589C9.88411 16.3574 9.78658 19.8468 9.5086 20.3991L9.5659 15.6381C9.6293 15.3638 9.8451 15.632 9.55371 15.2162C9.24647 15.3882 9.83412 15.4954 9.07456 15.5588C9.06115 15.037 9.26232 15.1333 9.07334 14.8066C8.76244 15.0968 8.67954 15.682 8.43691 16.0916C7.61151 17.4889 8.22355 19.8236 7.46764 21.1501C7.12017 20.6649 7.52251 19.5761 7.54445 18.9592C7.5981 17.4779 7.78464 17.4913 7.13968 16.928L7.48837 16.0916C6.48618 16.355 7.00434 16.8293 6.34232 17.4572C5.84488 17.3218 6.38499 16.9402 5.84 17.3267C6.08019 17.9375 6.32281 17.2938 6.28135 18.3533C6.26429 18.7885 6.15212 19.3103 5.90828 19.6347C5.66809 19.3018 6.09116 18.6337 6.00216 17.907C5.58519 18.1082 5.78026 18.185 5.36451 18.1838L5.68516 17.6291C4.03314 18.0424 4.83538 20.2174 3.88196 21.2477C3.48206 20.5978 4.65371 19.631 4.10751 18.7093C3.70151 18.8458 3.69542 18.9239 3.38208 19.1982C3.02241 19.5152 2.99803 19.4237 2.65665 19.67C2.42866 20.2308 2.43354 21.4379 1.94707 21.7707C1.81296 21.4525 2.09094 20.7795 2.21408 20.137C2.0946 20.1906 0.794923 21.0489 0.744936 21.1221C0.99975 21.6415 6.39718 25.7795 7.29208 26.5817C9.41472 28.4861 11.5605 30.41 13.6893 32.3059C14.8902 33.3763 19.0684 37.2668 20.0742 37.9252C21.7787 39.0432 25.3315 42.7374 26.8933 43.219C27.2407 40.7196 26.6714 35.6575 27.3188 33.43C27.3517 33.4166 27.4383 33.4044 27.4224 33.4007C27.4066 33.3958 27.4992 33.3776 27.5273 33.3727C27.5687 33.3641 27.8333 33.3239 27.8674 33.3215C28.1222 33.3007 28.3417 33.3203 28.5928 33.3337C30.0108 33.4105 31.4153 33.3166 32.832 33.4275C34.634 33.5678 36.6189 33.5373 38.4355 33.5092C40.2082 33.4824 42.0175 33.3337 43.8122 33.5422C45.4984 33.7397 47.1614 34.0384 48.878 34.0189L48.9853 33.8543C49.3462 33.2605 49.4071 32.6241 49.4693 31.9218C49.6961 29.3639 49.384 26.4732 49.5376 23.8287C49.6376 22.0865 49.6095 20.2284 49.54 18.4813C49.4742 16.8597 49.6985 15.2772 49.6522 13.6703C49.6364 13.1546 49.7046 13.3521 49.4779 13.0851C48.8512 14.0336 49.6144 17.7656 48.9743 18.4837ZM15.5376 9.38478C16.1533 8.91904 16.7129 8.50451 17.3469 8.07292C18.599 7.21947 19.8767 6.51233 21.0191 5.50527C21.5592 5.02856 22.242 4.68474 22.854 4.21169L27.993 0.046875C28.5331 0.433364 28.2381 1.86837 28.2015 2.5048C28.1491 3.39726 28.1454 4.36165 28.1076 5.2724C28.0308 7.06585 27.7613 9.05072 27.765 10.782C29.2061 10.5125 32.1785 11.0429 33.8708 11.0246C34.0585 10.7917 34.0122 10.8466 34.0464 10.6089L34.2183 11.0466C35.7081 10.9112 41.5177 11.1831 43.1234 11.0075C43.3794 10.5174 43.0685 10.7869 43.5074 10.5174L43.8439 11.0356L45.663 11.1173L45.8983 10.8137L46.2372 11.1246C46.9809 11.2038 49.3815 11.2672 49.9204 11.5403C50.1094 12.0817 49.9095 16.6293 49.8558 17.5291C49.807 18.352 49.9168 19.6322 49.9277 20.521L49.8546 29.2835C49.7912 30.2759 49.9716 31.0306 49.8217 32.0316L49.3547 34.3395C48.0392 34.5797 43.3648 33.9043 41.3165 33.8518C40.396 33.8287 39.4389 33.864 38.555 33.8335C36.6469 33.7653 34.8132 33.9079 32.9137 33.8518C31.1763 33.8006 29.3158 33.8165 27.6541 33.7433C27.4322 35.321 27.3297 37.2851 27.2956 38.8835C27.2724 39.9223 27.4431 43.308 27.003 44.0005C26.6177 43.8676 26.6884 43.5762 26.2507 43.2665C23.9184 41.6182 24.0525 41.695 21.9409 39.7796C21.4276 39.3139 20.7509 38.8408 20.1998 38.3995C19.1123 37.529 17.9028 36.2537 16.8531 35.5026C14.6293 33.9116 12.3189 31.2037 10.2657 29.6078C9.1282 28.7251 8.13943 27.5156 6.96045 26.6719C5.77295 25.8209 4.68297 24.7273 3.53814 23.8519C3.24553 23.6276 2.98096 23.3764 2.69079 23.1387C2.3104 22.8278 0.387708 21.9121 0 21.1111C0.308459 20.8575 0.586439 20.7429 0.879048 20.5344C1.25213 20.2686 1.20336 20.1601 1.58497 19.9212L4.95973 17.7717C5.20114 17.6486 6.18138 16.761 6.44473 16.4976L11.1448 12.9156C11.5215 12.6449 11.5971 12.4462 11.8141 12.2682C12.2616 11.8988 12.1604 12.3974 12.4164 11.5184C13.0979 11.4355 13.5759 11.2148 13.7295 10.4565C14.4025 10.7137 15.006 9.7859 15.5376 9.38478Z" fill="black"/>
<path fill-rule="evenodd" clip-rule="evenodd" d="M22.8658 6.16309C23.1779 6.95923 23.5022 17.748 23.5046 19.3208L23.4047 22.6821C23.362 23.1015 23.3535 23.2734 23.1608 23.51C23.0706 23.2515 23.2462 19.8328 23.2474 19.2001C23.2571 15.106 22.717 9.33424 22.8658 6.16309Z" fill="black"/>
<path fill-rule="evenodd" clip-rule="evenodd" d="M31.9551 20.011C31.8539 19.7988 32.0124 18.0505 31.9197 17.4055C31.7637 16.3326 31.5662 17.9664 31.7161 14.9988C31.7503 14.3173 31.6722 13.7491 31.6028 13.0786L31.4284 13.003C30.6445 12.575 31.3918 12.4921 30.8749 11.7106C30.4677 12.1361 30.7798 12.1739 30.3896 12.497C30.097 12.3019 30.2458 12.5958 30.1836 12.1239C30.5957 11.9191 30.0763 12.5958 30.8749 11.4473L32.1624 11.5436C32.2879 12.6323 31.9417 12.6787 31.9661 13.5553C31.9978 14.6769 32.5306 19.2441 31.9551 20.011Z" fill="black"/>
<path fill-rule="evenodd" clip-rule="evenodd" d="M28.3166 16.6866C27.913 16.116 28.2873 14.6993 27.8192 13.8702C27.7375 14.2482 28.3166 21.4525 27.4327 22.0645C27.8643 18.8629 27.7558 16.5061 27.5607 13.4337C27.5083 12.6291 27.3754 12.7778 27.2852 12.2389C27.5229 12.0438 27.607 12.0085 27.8777 11.7549C27.7326 12.8132 28.7043 15.176 28.4434 16.422C28.3678 16.7817 28.5397 16.4269 28.3166 16.6866Z" fill="black"/>
<path fill-rule="evenodd" clip-rule="evenodd" d="M20.7917 19.4009C20.4844 18.9534 21.0075 15.0556 21.0392 14.1595C21.105 12.2283 21.0526 10.3702 21.0904 8.46094C21.2513 10.2983 21.3415 12.1222 21.272 14.04C21.2452 14.8106 20.9867 18.9583 20.7917 19.4009Z" fill="black"/>
<path fill-rule="evenodd" clip-rule="evenodd" d="M11.7894 20.1616C11.5212 19.6898 11.8455 18.2414 11.8626 17.522C11.8747 16.9795 11.7284 15.0214 12.0296 14.585C12.2856 15.2177 12.1442 19.6374 11.7894 20.1616Z" fill="black"/>
<path fill-rule="evenodd" clip-rule="evenodd" d="M4.94923 22.1967C4.62492 21.809 4.9029 19.5949 4.9224 18.917C5.23208 19.3559 5.176 20.0265 5.14674 20.619C5.12845 20.9823 5.11382 21.9199 4.94923 22.1967Z" fill="black"/>
<path fill-rule="evenodd" clip-rule="evenodd" d="M3.147 22.1249C2.99216 21.8677 3.14212 21.6848 3.17504 21.3641C3.22381 20.8826 3.11042 20.8399 3.1092 20.4766C3.66882 20.5253 3.53471 21.9164 3.147 22.1249Z" fill="black"/>
<path fill-rule="evenodd" clip-rule="evenodd" d="M28.4975 12.5757C28.0537 12.5586 28.3683 12.6354 28.0781 12.4123C28.2098 12.1502 28.3707 12.1111 28.6292 11.96L28.4975 12.5757Z" fill="black"/>
<path fill-rule="evenodd" clip-rule="evenodd" d="M32.7986 12.2384C32.7022 12.0872 32.6535 12.492 32.6718 11.88C32.6888 11.3374 32.7181 11.6642 32.8034 11.541C33.1046 11.741 33.079 12.0116 32.7986 12.2384Z" fill="black"/>
<path fill-rule="evenodd" clip-rule="evenodd" d="M26.767 12.2226C26.3927 12.0422 26.467 12.0629 26.6853 11.7812C26.9706 12.0361 26.9255 11.9507 26.767 12.2226Z" fill="black"/>
<path fill-rule="evenodd" clip-rule="evenodd" d="M42.4046 13.0904C42.218 12.8392 42.2753 13.4415 42.3083 12.938C42.3265 12.6746 42.2729 12.8953 42.396 12.7148C42.8886 13.0135 42.5167 12.9367 42.4046 13.0904Z" fill="black"/>
</svg>
