<svg width="51" height="44" viewBox="0 0 51 44" fill="none" xmlns="http://www.w3.org/2000/svg">
<path fill-rule="evenodd" clip-rule="evenodd" d="M42.9322 15.8969C42.9298 15.8969 42.6588 15.6443 42.9493 15.7578C43.125 15.8249 43.0591 15.9067 42.9322 15.8969ZM42.9542 16.9502L42.9212 16.6756C42.9798 16.7159 43.2093 16.5499 42.9542 16.9502ZM35.8656 10.6195C35.6617 10.2326 35.8106 10.3876 35.8656 10.2839C36.023 10.5756 36.0291 10.3473 35.8656 10.6195ZM30.2184 7.52433C30.0292 7.19968 30.0951 7.22531 30.128 6.79081C30.5064 6.63215 30.3807 6.68707 30.6358 6.504C30.626 6.58211 30.2879 7.35712 30.2184 7.52433ZM28.6219 4.99669C28.5182 5.39335 28.4303 5.26764 28.3461 5.89131C28.0532 5.38359 27.9519 5.3128 27.9263 4.62688L28.6219 4.99669ZM26.8535 3.68222C26.2627 4.13136 26.7009 3.73348 26.3726 4.39377C25.9454 4.03128 26.1419 3.51624 25.6525 2.98532L25.2278 3.50769C25.1509 2.99875 25.2937 2.97312 25.052 2.56791C24.5089 2.84863 24.9873 2.61673 24.6907 3.17084L24.2404 1.71601C24.8067 1.88566 26.2347 3.24407 26.8535 3.68222ZM23.5191 2.50689L23.48 1.14726L23.9328 1.31325C24.0146 1.76849 24.0012 1.3816 23.8437 1.87101C24.2428 2.26401 24.3978 2.5911 24.0903 3.19036L23.9438 2.2274L23.5191 2.50689ZM14.7511 11.7472C14.5619 11.5117 14.6412 12.1073 14.4179 11.3432C14.928 11.5044 14.7584 11.1053 14.7511 11.7472ZM12.7958 11.5068C12.4614 11.7314 12.6591 11.6142 12.4358 11.9364C12.1795 11.7143 12.1783 11.5263 12.1441 11.2078L14.1372 11.3445C14.2214 11.5898 14.1664 11.5031 14.0554 11.9266C13.3219 11.7863 13.9968 11.6825 13.1852 11.9388C13.0119 11.5666 13.1327 11.6496 12.7958 11.5068ZM6.4029 11.7375C6.12585 11.248 6.34432 11.602 6.38459 11.3969L6.95578 11.3921L6.66775 11.9645C6.48223 11.862 6.59696 12.0768 6.4029 11.7375ZM3.50301 12.7102L3.38097 12.0816L3.78373 11.5141C4.23653 11.4836 4.20358 11.4055 4.48063 11.6044C4.13401 11.7814 4.10838 11.652 3.88381 12.0658C3.7166 12.3733 3.75321 12.4417 3.50301 12.7102ZM3.20521 11.6874C2.93304 11.6911 3.00017 11.6142 3.16616 11.5605C3.37486 11.4921 3.20643 11.6874 3.20521 11.6874ZM2.58276 11.5983C2.6743 11.8278 2.42166 12.6492 2.33744 12.9055C2.07626 12.7175 2.13606 12.4783 2.20441 12.1866C2.33134 11.6484 2.26666 11.7301 2.58276 11.5983ZM1.07302 11.7497L2.025 11.6032L1.83094 12.3209C1.25609 12.0841 1.4831 12.1097 1.27806 12.5003L1.07302 11.7497ZM1.76503 18.4563C1.81385 17.6105 1.51972 13.2997 1.74184 12.9872L2.14949 17.7142C2.41922 17.619 2.4656 17.7435 2.34843 16.7915C2.29595 16.368 2.28618 16.1227 2.27276 15.6906C2.25201 15.0304 1.90417 13.9319 2.2215 13.4193C2.60107 14.0137 2.20319 15.117 2.42776 15.831C2.94403 17.4726 2.25323 22.158 2.8232 23.3517C3.20033 22.8976 2.87568 21.4196 2.85982 20.7325L2.77682 14.7277C2.75729 13.9942 2.73288 14.0588 2.88911 13.3632C3.00505 12.8457 2.88422 12.4002 2.98919 11.8851C3.17104 12.2415 2.95623 12.1939 3.11856 12.6223C3.39195 13.3424 3.23817 12.5515 3.5555 13.1667C3.5262 14.1479 3.38707 16.9368 4.04491 17.6129C4.01806 16.9185 3.84841 16.1813 3.81058 15.4514C3.79715 15.1939 3.56648 13.3095 4.02172 13.2973C4.46842 13.285 4.33417 13.8477 4.34515 14.486C4.3537 14.984 4.33783 15.4343 4.31708 15.9299C4.23653 17.9266 4.1157 22.7329 4.76866 24.3317L4.83457 24.0034C4.83457 24.001 4.79551 23.6177 4.79429 23.6043L4.5502 20.8252C4.4672 19.6023 4.43425 17.9876 4.52945 16.7708C4.73205 16.0934 4.80528 17.248 4.70032 16.0251C4.63807 15.3111 4.46354 14.1711 4.78453 13.5475C5.12017 12.8994 4.94197 13.213 4.97004 12.438C5.27517 12.8408 4.97981 12.8213 5.44848 13.0153L5.55344 12.0072C6.09046 12.6199 5.37281 16.0214 5.83781 16.9966C6.35774 16.7061 5.48997 13.1545 6.3077 12.3514C6.83984 13.5218 6.76051 13.6097 6.63968 14.9266C6.50298 16.4132 6.1881 23.1051 6.5994 23.7788C6.8557 23.0429 6.51763 14.2199 7.04854 12.7212C7.19866 12.9897 6.76905 15.7443 7.38906 16.5523C7.74666 15.8639 7.07783 14.1431 7.40493 13.1837C7.65513 12.4502 7.79792 12.9006 7.9334 12.4783C7.38906 12.1952 7.06441 12.2366 7.17181 11.3957L10.5038 11.3762C10.2316 11.7729 10.2621 11.4384 9.88863 12.0401C9.40897 11.8327 9.95819 11.7607 9.36748 11.9059C8.46065 13.6243 8.93054 14.8253 8.85121 16.6512C8.78896 18.0486 8.67424 20.6544 9.05015 21.9591C9.27106 21.5466 8.90857 18.3171 9.04893 17.3749C9.14657 16.7244 9.24665 17.0515 9.18562 16.2948C9.10629 15.3282 8.93542 13.7769 9.43949 12.9384C10.4452 12.914 10.0168 13.6524 10.0204 14.7289C10.0229 15.2549 9.95209 16.501 10.3805 16.772C10.4476 16.6341 10.2047 13.5609 10.4366 12.6052C10.6575 12.8347 10.5892 12.8762 10.8638 12.8005C11.4423 11.7546 10.2877 12.698 10.8333 11.3127L11.7194 11.22C11.7535 11.6972 11.8109 11.4641 11.5729 11.9144C11.2409 11.4812 11.5412 11.5068 11.0225 11.4946C11.2702 12.8249 11.5985 12.15 11.4435 13.8904C11.3679 14.7252 11.3105 15.7016 11.2873 16.5389L11.457 21.6796C11.5204 21.9432 11.4936 21.8492 11.5741 21.9591C11.7902 20.6788 11.236 18.1804 11.5131 16.8989C11.723 15.9262 11.9342 17.6263 11.7438 14.8107C11.6852 13.9356 11.7084 13.2802 11.9891 12.4576C12.5041 12.6833 11.8829 12.6516 12.5542 12.6711L12.7568 12.0206C13.3072 12.9323 13.0558 13.0068 12.9936 14.0027C12.9533 14.6544 12.8263 15.8225 13.2608 16.2997C13.3914 16.0763 13.3219 15.7675 13.2853 15.449C13.1742 14.4628 13.101 13.0873 13.6368 12.2354C14.2726 12.8225 13.8516 15.6479 13.8491 16.6512C13.8467 17.3566 13.9907 20.8179 14.1335 21.3086L14.1994 21.156C14.3276 20.5409 14.1652 19.7695 14.1127 19.1495C13.9956 17.7667 13.9199 12.7737 14.3776 11.962C14.7169 12.3135 14.4264 12.3575 14.7852 12.4954C15.2917 11.901 14.5167 11.8436 15.1831 11.3408L15.2844 11.8009C15.21 13.0947 14.7083 14.9461 15.199 16.3143C15.6835 15.7785 14.9268 12.7004 15.6799 11.5361C16.0143 11.9413 15.6213 11.8461 15.9191 12.305C16.3865 11.7082 15.6786 11.7485 16.2803 11.2859C16.5403 11.6374 16.4219 12.1024 16.3792 12.5503L16.2303 16.5303C16.2303 17.021 16.4781 21.5429 16.5208 21.6332C16.9602 20.9522 16.3499 17.3017 16.4622 16.1593C16.5501 15.2647 16.8454 16.1679 16.8735 13.6439C16.8808 12.9397 17.0712 11.8839 17.3788 11.2712C18.559 11.1992 20.1432 11.0076 21.2868 11.1602C21.2856 12.0206 19.6269 14.4457 20.4862 16.4205C21.0122 16.0812 20.1871 13.8038 21.0781 12.7334C21.3051 13.2069 20.7962 19.8525 21.3466 21.0669C21.3661 21.0462 21.3564 21.0059 21.3893 20.9937C21.421 20.9802 21.421 20.9339 21.4259 20.9156C21.4577 20.7813 21.4638 20.9034 21.4748 20.6214C21.5541 18.4892 20.845 12.6675 21.8348 11.054C22.4658 10.9832 22.788 11.0955 23.3897 11.2273C23.4739 9.08656 22.6904 4.40109 22.9015 0.945881C23.0565 1.26321 23.0773 1.7868 23.1188 2.2274C23.2347 3.42714 23.2591 2.7815 23.7803 3.0854C23.8144 3.82258 23.884 4.4255 23.9414 5.13827C24.0439 6.41856 23.8327 7.94418 24.0085 9.2794C24.0732 9.76637 23.9231 9.77736 23.8657 10.1008C23.7876 10.5377 23.934 10.6073 24.3856 10.5792C24.6163 9.57598 24.2306 9.7261 24.2941 8.84124C24.3563 7.96859 24.4064 8.20414 24.2611 7.22653C24.0988 6.12076 24.2245 4.54267 24.3368 3.41371C25.063 4.13869 24.8262 5.40434 24.8555 6.43687C24.8775 7.23507 24.9983 10.9856 24.6822 11.5922C24.1916 12.532 23.8889 15.5161 24.3307 16.346C24.9275 15.7687 24.0634 12.6919 24.8165 11.7057C25.0691 13.2973 24.9056 19.7988 25.4621 20.6617C25.5012 20.5372 25.2497 15.8395 25.2034 15.2122C25.0813 13.5328 25.0056 11.0235 25.1143 9.35629C25.1582 9.89941 25.1179 10.3009 25.4121 10.6683C25.7245 9.99949 24.8909 5.00279 25.7355 3.69321C25.9515 4.16554 25.9283 4.55854 26.3726 4.75381C26.7094 4.50239 26.6081 4.39377 26.6862 4.23144C27.1696 4.9198 26.8083 8.90226 26.8596 10.1618L26.9816 12.2183C27.3587 11.9364 27.1122 9.089 27.1207 8.47997C27.1427 6.77129 26.8388 5.75462 27.5748 4.83803C28.0093 5.40312 27.7981 5.63989 28.0996 6.15494C28.4071 6.68097 28.3595 6.07072 28.3168 6.72491C28.2936 7.08373 28.2436 7.20578 28.2668 7.63662C28.3315 8.7973 28.5133 10.1508 28.5231 11.292C28.9112 11.076 28.8062 10.9051 28.7403 10.3302C28.6 9.09876 28.4706 7.64516 28.6842 6.43443C28.9539 6.60042 28.8368 6.78593 29.1187 7.05688L29.2322 6.46738C29.2298 6.23915 29.1883 6.16226 29.2005 5.88155C29.4604 5.94257 29.2578 5.7717 29.5263 6.14884L29.6484 5.75096L30.2061 6.19033C29.7973 6.73711 29.7729 6.73467 29.807 7.52311C29.8571 8.65206 30.1622 8.06867 30.2013 8.95108C30.2354 9.71999 30.0585 11.8668 30.338 12.3636C31.0654 11.2322 29.9865 9.30991 30.5357 8.06989C30.7822 7.51457 30.5967 8.30911 30.8017 7.61343C30.9226 7.20822 30.6956 7.34614 30.9421 6.90432C31.2753 6.81767 31.362 6.97023 31.6219 7.18992C31.5975 7.76111 31.2899 7.99544 31.6598 8.46899C31.9453 8.03205 31.661 7.87949 31.9234 7.44622C32.3762 7.62441 32.0735 8.08087 31.9649 8.53978C31.5255 10.3864 31.5975 18.2036 32.2615 19.1227C32.5532 18.4782 31.6146 14.7167 31.9161 13.4156C32.1858 12.2562 32.375 13.9014 32.2676 10.766C32.198 8.7314 32.3884 9.4881 32.58 8.69722L32.6703 8.16387C32.6789 8.13336 32.6996 8.09186 32.7082 8.06745C32.7167 8.04426 32.7313 8.00276 32.7509 7.97469C33.3379 8.32741 33.1012 8.04426 33.1243 8.59592C33.1439 9.06581 32.9132 9.20861 33.3355 9.4344L33.3794 8.54832L34.0653 8.81805C33.7675 10.1887 33.654 10.7977 33.7736 12.2757C33.781 12.3587 33.7981 12.6968 33.8017 12.7139C33.8615 13.0934 33.8493 12.7383 33.9347 13.185C34.1251 14.1931 34.0605 17.2516 34.3253 17.9583C34.7 17.5397 34.2387 14.165 34.1972 13.6512C34.1056 12.5015 34.2472 11.4226 34.2435 10.2814C34.2423 9.60649 34.1007 9.57964 34.4217 9.16345C35.0722 9.57109 34.3302 9.92138 34.8184 10.5951C34.8355 10.5756 34.8208 10.5341 34.8501 10.5231C34.8806 10.5109 34.8757 10.4633 34.8794 10.4462C34.96 10.08 34.8367 10.0251 35.0246 9.64432C35.3835 9.89819 35.1858 11.2639 35.2199 12.0853C35.2456 12.6687 35.2663 14.2749 35.5055 14.63C35.7984 14.1723 35.5019 11.6557 35.5067 10.866C36.0694 11.2908 35.6788 11.3249 36.0914 11.7411C36.1072 11.7131 36.0865 11.6679 36.1219 11.6508L36.3611 10.6402C36.9164 10.9722 36.5771 12.9592 36.6552 14.2199C36.6955 14.868 36.8175 17.4433 37.0812 17.8167C37.3167 17.4042 36.9689 15.106 36.9835 14.3627C37.2838 15.1561 36.9176 15.9897 37.4278 16.4107C37.8452 15.6394 37.0421 13.5767 37.1092 12.5759L37.0812 11.2566C37.4315 11.7729 37.0616 12.1598 37.656 12.5222C37.8818 12.1927 37.6841 12.3526 37.7134 12.0646L37.7939 11.7314C38.2419 12.1988 37.8757 12.4588 38.3798 12.9323C38.3956 12.9079 38.3761 12.8615 38.4078 12.8506L38.5153 12.3526C39.1987 12.9409 38.7105 13.506 38.9095 14.2993C38.9937 14.6361 39.0742 14.9388 39.1231 15.3159L39.2183 16.1386C39.3183 16.4742 39.1499 16.1849 39.3379 16.3839C39.643 15.9701 39.189 14.2358 39.4013 13.2252L39.7821 13.7647L39.8456 13.2875C40.5339 13.6707 39.9786 14.1089 40.551 14.7362C40.5693 14.7118 40.5523 14.6654 40.5852 14.6508C40.6194 14.6374 40.6108 14.5837 40.6145 14.5641L40.6767 13.8806C41.0209 14.2407 40.7597 14.6178 40.8171 15.3282C40.8964 16.3277 40.9941 19.8208 41.2723 20.3737L41.215 15.6076C41.1515 15.333 40.9355 15.6015 41.2272 15.1854C41.5347 15.3574 40.9465 15.4648 41.7068 15.5283C41.7203 15.0059 41.5189 15.1024 41.7081 14.7753C42.0193 15.0657 42.1023 15.6516 42.3452 16.0617C43.1714 17.4604 42.5587 19.7976 43.3154 21.1255C43.6633 20.6397 43.2605 19.5498 43.2386 18.9323C43.1849 17.4494 42.9981 17.4628 43.6438 16.8989L43.2947 16.0617C44.2979 16.3253 43.7792 16.8001 44.442 17.4286C44.9399 17.2931 44.3992 16.9111 44.9448 17.298C44.7044 17.9095 44.4615 17.2651 44.503 18.3257C44.5201 18.7614 44.6324 19.2838 44.8765 19.6084C45.1169 19.2752 44.6934 18.6064 44.7825 17.879C45.1999 18.0804 45.0046 18.1573 45.4208 18.156L45.0998 17.6007C46.7536 18.0145 45.9505 20.1918 46.9049 21.2231C47.3052 20.5726 46.1323 19.6048 46.6791 18.6821C47.0855 18.8188 47.0916 18.8969 47.4053 19.1715C47.7654 19.4888 47.7898 19.3973 48.1315 19.6438C48.3597 20.2052 48.3549 21.4135 48.8418 21.7467C48.9761 21.4282 48.6978 20.7545 48.5745 20.1113C48.6942 20.165 49.9952 21.0242 50.0452 21.0974C49.7902 21.6173 44.387 25.7597 43.4912 26.5628C41.3663 28.4692 39.2183 30.3951 37.0873 32.293C35.8851 33.3646 31.7025 37.2592 30.6956 37.9182C28.9893 39.0374 25.4328 42.7355 23.8694 43.2176C23.5215 40.7156 24.0915 35.6481 23.4434 33.4183C23.4105 33.4049 23.3238 33.3926 23.3397 33.389C23.3555 33.3841 23.2628 33.3658 23.2347 33.3609C23.1932 33.3524 22.9284 33.3121 22.8942 33.3097C22.6391 33.2889 22.4194 33.3084 22.168 33.3219C20.7486 33.3987 19.3426 33.3048 17.9243 33.4158C16.1205 33.5562 14.1335 33.5257 12.315 33.4976C10.5404 33.4708 8.72916 33.3219 6.9326 33.5306C5.24466 33.7283 3.57991 34.0273 1.86145 34.0078L1.75405 33.843C1.39278 33.2486 1.33176 32.6115 1.26951 31.9085C1.0425 29.3479 1.35495 26.4542 1.20117 23.8069C1.10109 22.0628 1.12916 20.2028 1.19873 18.4538C1.26463 16.8306 1.04006 15.2464 1.08644 13.6378C1.10231 13.1215 1.03396 13.3192 1.26097 13.0519C1.8883 14.0015 1.12428 17.7374 1.76503 18.4563ZM35.237 9.34774C34.6207 8.88152 34.0605 8.46655 33.4258 8.0345C32.1724 7.18015 30.8933 6.47227 29.7497 5.46414C29.209 4.98693 28.5255 4.64275 27.9128 4.1692L22.7685 0C22.2278 0.386896 22.5232 1.82341 22.5598 2.46051C22.6122 3.35391 22.6159 4.31932 22.6537 5.23103C22.7306 7.02637 23.0004 9.01333 22.9967 10.7464C21.5541 10.4767 18.5785 11.0076 16.8845 10.9893C16.6965 10.7562 16.7429 10.8111 16.7087 10.5731L16.5366 11.0113C15.0452 10.8758 9.22956 11.148 7.62217 10.9722C7.36587 10.4816 7.6771 10.7513 7.23772 10.4816L6.90086 11.0003L5.07989 11.0821L4.84433 10.7782L4.50504 11.0894C3.76054 11.1687 1.35739 11.2322 0.817933 11.5056C0.628757 12.0475 0.828917 16.5999 0.882619 17.5006C0.931439 18.3245 0.821594 19.606 0.81061 20.4957L0.883839 29.2674C0.947305 30.2609 0.766672 31.0164 0.916793 32.0184L1.38424 34.3288C2.70115 34.5692 7.38052 33.893 9.43094 33.8406C10.3524 33.8174 11.3105 33.8528 12.1954 33.8223C14.1054 33.7539 15.941 33.8967 17.8426 33.8406C19.5818 33.7893 21.4442 33.8052 23.1078 33.7319C23.3299 35.3113 23.4324 37.2775 23.4666 38.8775C23.4898 39.9174 23.3189 43.3067 23.7595 43.9999C24.1452 43.8669 24.0744 43.5752 24.5126 43.2652C26.8474 41.6151 26.7131 41.692 28.827 39.7746C29.3408 39.3084 30.0182 38.8348 30.5699 38.393C31.6585 37.5216 32.8693 36.2449 33.9201 35.4931C36.1463 33.9004 38.4591 31.1897 40.5144 29.592C41.6531 28.7084 42.643 27.4977 43.8232 26.6531C45.0119 25.8012 46.103 24.7064 47.2491 23.8301C47.542 23.6055 47.8069 23.3541 48.0973 23.1161C48.4781 22.8049 50.4028 21.8883 50.791 21.0864C50.4822 20.8326 50.2039 20.7178 49.911 20.5091C49.5375 20.2431 49.5863 20.1344 49.2043 19.8952L45.826 17.7435C45.5843 17.6202 44.6031 16.7317 44.3394 16.4681L39.6344 12.8823C39.2573 12.6113 39.1816 12.4124 38.9644 12.2342C38.5165 11.8644 38.6178 12.3636 38.3615 11.4836C37.6792 11.4006 37.2008 11.1797 37.047 10.4206C36.3733 10.6781 35.7691 9.74929 35.237 9.34774Z" fill="black"/>
<path fill-rule="evenodd" clip-rule="evenodd" d="M27.8993 6.12305C27.5869 6.92003 27.2622 17.7202 27.2598 19.2946L27.3598 22.6595C27.4026 23.0793 27.4111 23.2514 27.6039 23.4882C27.6943 23.2295 27.5185 19.8072 27.5173 19.1738C27.5075 15.0754 28.0482 9.29755 27.8993 6.12305Z" fill="black"/>
<path fill-rule="evenodd" clip-rule="evenodd" d="M18.8034 19.9858C18.9047 19.7735 18.746 18.0233 18.8388 17.3776C18.995 16.3036 19.1927 17.9391 19.0426 14.9684C19.0084 14.2861 19.0865 13.7174 19.1561 13.0461L19.3306 12.9704C20.1154 12.542 19.3672 12.459 19.8847 11.6767C20.2924 12.1027 19.9799 12.1405 20.3705 12.4639C20.6634 12.2687 20.5145 12.5628 20.5767 12.0905C20.1642 11.8854 20.6841 12.5628 19.8847 11.4131L18.5959 11.5095C18.4702 12.5994 18.8168 12.6458 18.7924 13.5233C18.7606 14.6462 18.2273 19.2181 18.8034 19.9858Z" fill="black"/>
<path fill-rule="evenodd" clip-rule="evenodd" d="M22.4491 16.6571C22.853 16.0859 22.4784 14.6677 22.947 13.8378C23.0288 14.2161 22.4491 21.428 23.3339 22.0407C22.9019 18.8357 23.0105 16.4765 23.2058 13.4008C23.2582 12.5953 23.3913 12.7442 23.4816 12.2047C23.2436 12.0095 23.1594 11.9741 22.8884 11.7202C23.0337 12.7796 22.0609 15.1449 22.3221 16.3923C22.3978 16.7523 22.2257 16.3971 22.4491 16.6571Z" fill="black"/>
<path fill-rule="evenodd" clip-rule="evenodd" d="M29.9772 19.3753C30.2848 18.9274 29.7612 15.0255 29.7295 14.1284C29.6636 12.1951 29.7161 10.3351 29.6782 8.42383C29.5171 10.2631 29.4268 12.089 29.4964 14.0088C29.5232 14.7801 29.782 18.9323 29.9772 19.3753Z" fill="black"/>
<path fill-rule="evenodd" clip-rule="evenodd" d="M38.9884 20.1353C39.2569 19.6629 38.9323 18.213 38.9152 17.4929C38.903 16.9498 39.0494 14.9897 38.748 14.5527C38.4917 15.1862 38.6333 19.6105 38.9884 20.1353Z" fill="black"/>
<path fill-rule="evenodd" clip-rule="evenodd" d="M45.8387 22.1737C46.1633 21.7856 45.8851 19.5692 45.8655 18.8906C45.5555 19.33 45.6117 20.0013 45.641 20.5944C45.6593 20.9581 45.6739 21.8967 45.8387 22.1737Z" fill="black"/>
<path fill-rule="evenodd" clip-rule="evenodd" d="M47.6403 22.1018C47.7954 21.8442 47.6452 21.6612 47.6123 21.3402C47.5635 20.8581 47.677 20.8154 47.6782 20.4517C47.118 20.5005 47.2522 21.8931 47.6403 22.1018Z" fill="black"/>
<path fill-rule="evenodd" clip-rule="evenodd" d="M22.2607 12.5416C22.705 12.5246 22.3901 12.6014 22.6806 12.3781C22.5488 12.1157 22.3877 12.0766 22.1289 11.9253L22.2607 12.5416Z" fill="black"/>
<path fill-rule="evenodd" clip-rule="evenodd" d="M17.9533 12.205C18.0497 12.0536 18.0986 12.4588 18.0803 11.8461C18.0632 11.303 18.0339 11.6301 17.9484 11.5068C17.647 11.707 17.6726 11.9779 17.9533 12.205Z" fill="black"/>
<path fill-rule="evenodd" clip-rule="evenodd" d="M23.999 12.1889C24.3737 12.0083 24.2993 12.029 24.0808 11.7471C23.7952 12.0022 23.8404 11.9167 23.999 12.1889Z" fill="black"/>
<path fill-rule="evenodd" clip-rule="evenodd" d="M8.34007 13.058C8.5268 12.8066 8.46944 13.4095 8.43649 12.9055C8.41818 12.6419 8.47188 12.8628 8.34861 12.6821C7.85553 12.9811 8.22778 12.9043 8.34007 13.058Z" fill="black"/>
</svg>
