<svg width="220" height="269" viewBox="0 0 220 269" fill="none" xmlns="http://www.w3.org/2000/svg">
<path d="M108.785 232.287C102.199 238.833 95.9396 245.767 88.9348 251.84C79.5695 260.303 67.4875 265.138 54.8698 265.474C49.3104 265.648 43.7834 264.566 38.7007 262.307C24.6548 255.583 18.5002 243.224 17.3301 228.207C16.0859 217.558 17.151 206.767 20.4529 196.567C24.0677 186.651 28.0105 176.79 35.6871 168.962C52.9268 151.383 70.0754 133.715 87.1328 115.958C92.3032 110.602 97.2287 105.009 102.367 99.6196C103.567 98.3941 104.969 97.3823 106.51 96.6279C109.909 94.934 113.667 91.8856 116.812 92.3781C119.603 92.8155 121.592 97.467 124.23 99.9451C145.068 119.518 161.92 142.523 179.512 164.829C187.067 174.41 195.078 184.039 197.901 196.746C201.485 212.876 203.215 228.941 199.56 245.213C197.25 255.498 181.931 267.043 169.72 268.457C154.767 270.189 143.059 264.368 132.81 253.987C128.99 250.118 123.908 247.525 119.829 243.873C115.842 240.304 112.401 236.128 108.785 232.287ZM172.618 203.551C175.492 202.003 177.539 200.899 179.588 199.796C180.014 200.355 180.44 200.914 180.867 201.474C171.299 216.005 156.895 226.327 145.836 239.807C145.879 237.209 146.744 234.692 148.307 232.617C154.712 225.096 161.495 217.896 167.851 210.335C168.574 209.509 169.104 208.533 169.401 207.477C169.698 206.42 169.755 205.311 169.568 204.23C167.188 200.198 164.511 196.349 161.56 192.715C158.437 195.905 155.79 198.859 152.872 201.515C152.248 201.912 151.724 202.448 151.34 203.08C150.957 203.712 150.724 204.424 150.659 205.161C150.595 205.897 150.701 206.639 150.97 207.328C151.238 208.017 151.662 208.635 152.207 209.134C153.346 211.278 154.144 213.585 154.573 215.974C153.998 216.241 153.422 216.507 152.847 216.774C150.501 214.601 148.156 212.428 145.029 209.531C141.951 214.612 139.179 219.187 136.408 223.762C135.921 222.967 135.622 222.071 135.533 221.142C135.445 220.213 135.569 219.277 135.898 218.403C137.319 215.416 139.303 212.702 140.894 209.787C141.685 208.73 142.065 207.421 141.961 206.104C139.517 202.662 136.672 199.505 133.967 196.249C131.918 197.963 129.878 199.69 127.8 201.369C127.067 201.442 126.327 201.403 125.606 201.252C126.503 199.019 127.683 196.911 129.118 194.979C129.564 194.708 129.934 194.33 130.197 193.88C130.459 193.429 130.605 192.92 130.62 192.399C130.636 191.878 130.521 191.361 130.287 190.896C130.052 190.43 129.704 190.031 129.276 189.733C127.594 187.778 126.016 185.736 124.546 183.616C121.347 186.338 119.269 188.106 117.19 189.874C117.594 187.907 118.405 186.047 119.572 184.412C120.479 183.215 120.931 181.734 120.846 180.234C118.411 175.714 115.511 171.446 112.726 167.011C111.48 168.199 110.653 168.988 109.826 169.777C109.443 169.538 109.059 169.298 108.674 169.059C109.209 166.825 110.208 164.728 111.605 162.905C116.848 158.786 113.423 155.556 111.194 151.496C107.94 154.474 104.991 157.173 102.043 159.871L101.076 158.981C106.556 151.851 112.078 144.754 117.497 137.578C120.531 133.561 125.605 130.214 122.415 123.887C122.715 122.862 123.198 121.901 123.842 121.049C125.197 123.071 126.132 124.465 127.286 126.186C130.022 123.095 132.493 120.303 135.182 117.266C131.19 113.721 127.505 110.448 123.325 106.736C111.508 119.098 100.035 131.1 88.5619 143.102C91.5789 137.626 95.0188 132.394 98.8503 127.454C104.823 119.957 111.246 112.82 117.302 105.386C117.707 104.81 117.965 104.143 118.054 103.444C118.142 102.745 118.058 102.035 117.808 101.376C117.237 100.792 116.546 100.341 115.782 100.054C115.018 99.7664 114.2 99.65 113.386 99.7128C111.772 100.332 110.366 101.395 109.331 102.779C101.354 111.254 93.6209 119.963 85.4803 128.275C73.2188 140.795 60.7132 153.077 48.2665 165.415C34.7829 178.338 26.6243 195.84 25.3965 214.476C24.6486 224.725 23.4393 234.975 29.3685 244.423C33.5937 251.154 38.9592 256.806 46.7249 258.361C56.5945 260.455 66.8898 258.807 75.6131 253.738C87.7392 246.399 98.1034 236.484 105.972 224.694C108.689 220.679 110.751 220.495 113.29 224.558C114.792 227.685 116.728 230.585 119.041 233.172C128.541 241.883 138.505 250.075 148.89 257.709C152.827 260.504 157.441 262.193 162.251 262.6C167.062 263.008 171.894 262.119 176.244 260.027C189.792 253.972 195.72 243.307 196.178 228.528C197.277 208.992 191.68 189.666 180.31 173.742C170.719 160.537 159.902 148.223 149.676 135.572C145.961 137.949 142.339 140.267 138.184 142.925C140.343 146.912 142.346 150.609 144.555 154.688C146.736 152.513 149.07 150.498 151.538 148.656C152.98 148.21 154.504 148.089 155.999 148.302C155.764 149.686 155.267 151.013 154.534 152.211C152.278 154.58 149.679 156.623 147.201 158.81C149.506 162.587 151.559 165.95 153.754 169.546C156.268 168.057 158.867 166.715 161.537 165.527C162.777 165.483 164.01 165.741 165.129 166.278C164.957 167.376 164.522 168.415 163.86 169.307C161.618 170.838 159.118 171.992 156.138 173.609C158.948 177.424 161.542 180.945 164.047 184.347C167.269 182.41 169.57 180.834 172.053 179.634C173.203 179.38 174.394 179.361 175.552 179.578C175.483 180.918 175.096 182.223 174.423 183.384C172.169 185.205 169.805 186.885 167.344 188.415C168.161 190.452 168.835 192.133 170.031 195.114C167.748 193.411 166.626 192.574 165.504 191.737L164.92 192.228C167.491 196.009 170.057 199.784 172.618 203.551ZM127.671 173.641C131.874 169.054 135.778 164.894 139.526 160.599C139.839 160.191 140.053 159.716 140.152 159.212C140.251 158.707 140.233 158.187 140.098 157.691C138.321 153.838 136.286 150.105 133.863 145.404C130.853 148.784 127.591 151.93 124.106 154.818C119.719 157.898 120.499 161.257 122.463 164.964C123.924 167.722 125.669 170.331 127.671 173.641ZM147.096 202.186C150.821 198.209 154.125 194.921 157.104 191.361C157.62 190.775 157.998 190.08 158.211 189.329C158.424 188.577 158.466 187.788 158.334 187.018C156.512 183.962 154.461 181.049 152.198 178.305C151.954 178.256 151.702 178.26 151.46 178.316C151.217 178.372 150.989 178.48 150.792 178.631C146.668 182.466 142.59 186.351 138.589 190.139C140.217 192.501 141.377 194.217 142.572 195.908C143.86 197.731 145.18 199.531 147.096 202.186ZM136.071 185.562C138.381 183.772 140.259 182.501 141.924 180.995C150.235 173.476 150.219 173.452 144.103 164.054C143.53 163.643 142.905 163.31 142.244 163.066C138.01 167.094 134.226 171.57 130.96 176.415C130.067 178.016 134.12 182.386 135.944 185.468C136.095 185.722 136.52 185.815 136.071 185.562ZM117.717 154.564C118.273 154.507 118.816 154.364 119.329 154.141C121.627 151.998 123.898 149.825 126.165 147.649C131.951 142.095 131.861 139.943 125.462 134.218C123.281 137.116 120.862 139.827 118.231 142.324C113.234 146.394 114.841 150.22 117.717 154.564ZM139.061 122.175C128.214 128.412 127.681 130.829 134.801 140.02C138.525 137.285 142.25 134.549 146.115 131.71C143.719 128.472 141.478 125.443 139.061 122.175ZM123.783 177.742C124.431 177.312 125.079 176.883 125.728 176.454C122.762 171.823 119.797 167.192 116.832 162.561C116.354 162.852 115.877 163.143 115.4 163.433C115.889 169.553 121.102 172.906 123.783 177.742Z" fill="black"/>
<path d="M179.476 31.4688C181.111 43.9094 176.714 55.3267 170.914 65.4362C165.849 74.1088 158.989 81.5987 150.794 87.4042C142.915 92.9275 128.412 88.3653 125.858 77.2721C122.472 62.5625 121.594 47.7205 127.918 33.1906C132.735 22.662 140.852 13.9903 151.04 8.4895C153.444 6.92341 156.174 5.92713 159.022 5.57664C161.87 5.22615 164.761 5.53071 167.473 6.46709C170.977 8.3481 173.928 11.1125 176.033 14.4861C178.138 17.8597 179.325 21.7251 179.475 25.6989C179.481 27.622 179.476 29.5456 179.476 31.4688ZM169.835 13.0754C169.143 13.2034 168.451 13.3312 167.759 13.4587C159.032 24.8416 149.427 35.5243 139.034 45.409C138.432 44.8746 137.831 44.34 137.23 43.8051C145.97 33.0446 154.709 22.2842 163.449 11.5237L162.652 10.2824C158.784 13.4159 154.706 16.2818 150.448 18.8602C146.433 20.8036 142.88 23.5831 140.027 27.0125C137.174 30.4418 135.088 34.4416 133.908 38.7435C129.94 50.4701 129.521 63.1072 132.704 75.0707C133.204 76.9624 134.181 78.694 135.542 80.0999C136.903 81.5059 138.602 82.539 140.476 83.1004C142.35 83.6618 144.337 83.7326 146.247 83.3062C148.156 82.8798 149.924 81.9704 151.382 80.665C158.506 74.2529 165.341 67.4102 168.982 58.2506C172.133 50.3254 175.962 42.4273 173.195 33.0174C161.864 37.0511 155.947 47.5704 146.206 53.1656C151.53 45.9058 157.453 39.1048 163.912 32.8336C166.157 31.3142 168.579 30.0753 171.125 29.1444C172.398 28.6029 173.459 27.6592 174.145 26.4577C172.959 21.931 171.327 17.5216 169.835 13.0754Z" fill="black"/>
<path d="M42.691 52.9001C42.4664 43.8767 44.0707 34.9012 47.4074 26.5143C50.744 18.1274 55.7438 10.5028 62.1056 4.09966C68.4657 -2.45219 83.9418 -0.597018 89.1557 7.36865C96.3779 18.2407 100.517 30.8677 101.132 43.9054C101.759 56.8525 99.7155 69.7903 95.1273 81.9134C92.0769 90.3933 79.1473 98.4483 72.2872 95.8956C65.1975 93.245 58.9076 88.8173 54.0208 83.0372C47.0711 74.4888 43.094 63.9098 42.691 52.9001ZM95.9177 40.6986C94.7027 30.7194 91.2401 21.1456 85.7906 12.6978C83.3604 9.23193 76.9737 5.58497 73.5421 6.47625C68.5213 7.78006 64.2367 12.7914 60.2434 16.8219C58.449 19.3851 57.0054 22.1766 55.9509 25.1224C50.7894 34.6933 48.6517 45.6045 49.82 56.4155C50.4562 62.3081 52.3591 67.9935 55.3982 73.0819C58.4373 78.1703 62.5409 82.5413 67.4274 85.8953C72.2093 89.2631 76.8898 90.4206 82.4477 87.1046C91.7229 81.5702 94.3899 72.3898 95.715 62.9315C96.2929 55.534 96.3606 48.1055 95.9177 40.6986Z" fill="black"/>
<path d="M184.582 128.836C174.727 129.264 171.076 126.042 170.74 116.265C170.194 108.347 172.585 100.505 177.456 94.2378C183.035 87.3896 189.071 80.9268 195.523 74.8937C197.133 73.3858 200.95 74.1145 203.759 74.0517C205.382 74.3446 207.023 74.5242 208.671 74.5892C210.656 74.0706 212.765 74.3408 214.555 75.3429C216.345 76.345 217.678 78.0013 218.273 79.9644C219.32 82.1018 219.905 84.436 219.989 86.8148C220.074 89.1935 219.655 91.5632 218.761 93.7692C215.667 101.107 211.945 108.163 207.636 114.86C205.299 118.958 201.956 122.393 197.922 124.839C193.887 127.284 189.296 128.66 184.582 128.836ZM209.647 100.685C206.406 103.64 203.164 106.593 199.923 109.547L198.545 108.204C200.743 105.39 202.876 102.522 205.158 99.7776C208.154 96.1727 211.544 92.8537 214.171 89.007C215.017 87.7684 213.987 85.2492 213.815 83.3159C212.129 83.3977 210.473 83.79 208.93 84.473C200.527 90.5031 192.278 96.7479 183.956 102.941L182.991 98.8591C181.791 103.561 180.205 108.155 178.251 112.597C176.542 115.748 176.092 118.755 178.7 120.463C181.405 122.156 184.617 122.853 187.78 122.433C199.768 120.288 204.64 110.354 209.647 100.685ZM205.351 80.6713C194.389 81.9545 188.995 88.3413 185.51 96.9413C191.861 91.7332 198.212 86.5247 205.351 80.6713Z" fill="black"/>
<path d="M46.3083 113.367C47.3394 121.723 41.7269 130.114 32.8851 135.768C30.0682 137.569 23.6868 136.379 20.3382 134.301C8.25882 126.802 -0.234681 116.403 0.00494463 101.214C-0.0523296 95.8165 0.707249 90.4411 2.2579 85.2705C5.03278 76.9785 20.0344 72.2872 27.4646 77.622C38.492 85.5398 46.332 95.8009 46.3083 113.367ZM21.6525 80.6204C20.8208 81.0833 19.9893 81.5465 19.1581 82.0099C24.8794 85.4014 22.074 87.9073 19.8271 90.8494C16.9826 94.5739 14.5925 98.6467 12.0283 102.583C8.43828 108.095 8.29904 113.306 12.5305 118.117C15.9547 122.033 19.8397 125.52 24.1009 128.504C25.2088 129.234 26.4738 129.692 27.7924 129.84C29.1111 129.988 30.4461 129.822 31.6884 129.356C35.3457 126.806 38.2048 123.271 39.9339 119.161C43.7179 106.87 40.0659 96.2285 30.3014 87.7938C27.4677 85.3459 24.5383 83.0083 21.6525 80.6204ZM7.44129 100.437C7.80253 100.498 8.16377 100.558 8.52501 100.619C11.4405 95.7715 14.3557 90.9239 17.3438 85.9557C14.1846 84.4055 11.1966 83.4686 10.0087 87.5477C8.7882 91.7381 8.26808 96.1321 7.44129 100.437Z" fill="black"/>
<path d="M155.428 252.634C156.968 250.074 158.661 247.609 160.5 245.255C169.2 235.317 178.011 225.477 186.934 215.736C188.367 215.032 189.952 214.696 191.547 214.758C191.49 216.156 191.125 217.525 190.479 218.766C179.815 230.007 169.024 241.127 158.226 252.241C157.589 252.704 156.882 253.062 156.131 253.3C155.897 253.078 155.663 252.856 155.428 252.634Z" fill="black"/>
<path d="M66.1913 40.8979C68.2428 37.1956 70.0682 33.3429 72.4011 29.8276C75.5422 25.0954 78.989 20.5558 82.5211 16.1055C83.5809 15.5181 84.7727 15.2102 85.9843 15.2107C86.4533 16.3651 86.6117 17.6223 86.4436 18.857C84.8382 21.1109 83.0938 23.2626 81.2205 25.2994C76.6647 30.8238 72.1156 36.3541 67.5733 41.8903L66.1913 40.8979Z" fill="black"/>
<path d="M75.2209 58.4694C76.6477 46.4248 84.2937 35.5564 90.3341 36.4343C85.1648 43.9716 80.1927 51.2206 75.2209 58.4694Z" fill="black"/>
<path d="M29.8232 95.0925C24.4857 102.699 19.9059 109.225 15.3258 115.751C14.555 108.421 23.1477 96.0747 29.8232 95.0925Z" fill="black"/>
</svg>
