<svg width="199" height="151" viewBox="0 0 199 151" fill="none" xmlns="http://www.w3.org/2000/svg">
<g clip-path="url(#clip0_19_79)">
<path d="M59.5534 54.5901C57.3987 55.0147 55.2127 55.2607 53.0178 55.3255C51.7931 55.4827 50.6191 55.9135 49.5824 56.5862C43.667 58.7659 37.4761 60.1027 31.1906 60.5576C27.6247 60.8096 24.1052 61.5157 20.7169 62.6588C19.9809 62.8628 19.2762 63.1668 18.6222 63.5623C15.2101 65.8998 11.0329 66.8325 6.95453 66.1679C5.38439 66.0986 3.87829 65.5237 2.65954 64.5283C1.44079 63.5328 0.574297 62.1699 0.188527 60.6416C-0.0150474 59.59 0.000839477 58.5074 0.235185 57.4623C0.469531 56.4171 0.917252 55.432 1.55011 54.5691C3.24738 51.9071 5.85403 49.9572 8.88168 49.0848C10.1232 48.6116 11.4945 48.6116 12.736 49.0848C14.185 49.6678 15.7561 49.879 17.3069 49.6992C18.8578 49.5194 20.3395 48.9544 21.6177 48.0552C24.5535 46.4318 27.3868 44.6283 30.1014 42.6551C30.7298 42.1718 31.3163 41.5624 31.9028 41.0161C32.5443 40.449 33.0296 39.7259 33.3121 38.9164C33.5945 38.1068 33.6647 37.238 33.5158 36.3934C32.885 32.0246 32.885 27.5874 33.5158 23.2186C33.8106 21.3574 34.3239 19.5377 35.0449 17.7974C35.8409 15.8643 36.3018 15.6962 38.2289 16.2215C41.1404 17.1136 43.7547 18.7843 45.7909 21.0544C47.1316 22.3781 47.0687 22.21 48.7236 21.2014C52.2788 18.8578 56.133 17.006 60.1818 15.6962C60.8075 15.5485 61.3831 15.2375 61.8503 14.7947C62.3175 14.3519 62.6597 13.793 62.8421 13.1747C63.7759 10.4617 64.8599 7.80298 66.0889 5.21105C66.7822 3.7054 67.662 2.29344 68.7074 1.00858C69.0951 0.469633 69.6749 0.101245 70.3264 -0.0200579C70.9778 -0.141361 71.6508 -0.00625343 72.2056 0.357195C72.7976 0.644453 73.3474 1.01212 73.8395 1.44983C76.3339 3.6859 78.6979 6.06424 80.9197 8.57302C81.8204 9.77073 82.386 11.1365 83.182 12.3763C84.6274 14.6246 86.0099 14.9188 88.2513 13.4479C95.5777 8.62505 103.556 4.88172 111.943 2.33235C115.522 1.46326 119.177 0.949482 122.856 0.798453C134.274 -0.215877 145.779 0.975319 156.749 4.30752C161.519 5.77588 166.146 7.67475 170.574 9.98085C173.34 11.5731 175.901 13.4996 178.199 15.7172C180.037 17.398 181.759 19.2022 183.352 21.1174C184.293 22.3523 185.1 23.6835 185.761 25.0887C188.82 30.0476 191.585 35.1536 194.392 40.2596C195.829 43.1174 196.73 46.2155 197.052 49.4C197.876 54.2701 198.449 59.1794 198.77 64.1087C199.341 70.4806 199.031 76.9012 197.848 83.1879C196.683 87.2872 194.796 91.1442 192.276 94.5766C190.328 97.6234 187.982 100.376 185.992 103.318C183.226 107.115 179.6 110.197 175.413 112.311C170.701 114.925 165.703 116.984 160.52 118.447C156.378 119.408 152.18 120.11 147.951 120.548C142.754 121.168 137.501 121.168 132.304 120.548C125.464 119.79 118.793 117.923 112.55 115.022C107.443 112.556 103.158 108.659 100.212 103.801C98.7049 101.213 98.2545 98.1412 98.9554 95.2279C99.0604 94.744 99.2755 94.291 99.5838 93.9042C101.304 91.399 103.642 89.3835 106.369 88.0541C109.097 86.7247 112.121 86.1269 115.148 86.3187C122.814 86.6339 130.104 88.9242 137.54 90.3531C144.765 91.8592 152.231 91.7515 159.409 90.0379C163.331 89.2084 167.182 88.0773 170.931 86.6549C173.674 85.5686 176.135 83.8682 178.124 81.6833C180.113 79.4985 181.579 76.8868 182.41 74.0475C183.281 72.0273 183.914 69.9116 184.295 67.7438C184.076 67.8065 183.876 67.9244 183.715 68.0861C183.553 68.2479 183.436 68.4483 183.373 68.6683C181.66 72.1669 178.967 75.088 175.623 77.0733C171.502 79.9133 166.716 81.6295 161.735 82.0532C157.41 82.5063 153.051 82.5063 148.726 82.0532C145.138 81.8354 141.605 81.0628 138.253 79.7629C136.719 79.1523 135.38 78.1355 134.377 76.8211C133.705 75.8666 133.286 74.7563 133.159 73.5945C133.032 72.4327 133.201 71.2577 133.652 70.1797C134.102 69.1018 134.818 68.1565 135.733 67.4327C136.648 66.7088 137.731 66.2302 138.881 66.0418C140.138 65.8527 141.437 65.7686 143.071 65.6005C141.274 64.4272 139.646 63.0133 138.232 61.3981C137.729 60.7467 136.933 60.7887 136.137 60.7257C129.036 60.1583 121.956 59.633 114.854 59.0237C112.742 58.8587 110.643 58.5569 108.57 58.1201C102.642 56.8384 96.6721 56.8384 90.9744 54.7372C90.2054 54.4431 89.3554 54.4431 88.5864 54.7372C84.1777 56.2147 79.9588 58.2108 76.018 60.6837C73.3009 62.5714 70.009 63.4416 66.7174 63.1421C61.8576 62.8689 58.5688 59.6751 59.5324 54.506C59.8047 54.0017 60.098 53.4974 60.3913 53.0141C62.9259 48.9377 66.1727 46.1221 71.3467 46.5634C72.4988 46.5634 73.651 46.4583 74.7821 46.5634C76.3428 46.5677 77.8444 45.9652 78.9716 44.8824C82.3035 41.8338 84.9831 38.1379 86.8478 34.019C86.9642 33.885 87.0283 33.7134 87.0283 33.5357C87.0283 33.358 86.9642 33.1863 86.8478 33.0524C85.2558 32.7792 83.7895 34.4392 82.0718 33.6828C82.0718 32.8633 82.7212 32.8843 83.182 32.7582C84.3551 32.401 85.5281 32.0438 86.7012 31.7286C87.0693 31.6752 87.4167 31.5245 87.7075 31.2918C87.9984 31.0592 88.2222 30.753 88.356 30.4048C88.8781 29.1176 89.1961 27.7564 89.2986 26.3705C86.2613 26.4966 84.2922 29.1441 81.1292 29.4383C81.4862 28.7091 82.1085 28.145 82.8678 27.8624L87.3296 25.7611C89.6966 24.6475 90.0527 23.807 89.152 21.3065C88.6702 19.9407 88.4398 19.7936 87.2667 20.5921C85.172 22.084 83.0773 23.6599 80.9825 25.1728C80.5636 25.467 80.2284 26.1393 79.4324 25.551C80.1817 24.4944 81.1365 23.6009 82.2394 22.9245C83.7266 21.8949 85.2139 20.8232 86.6593 19.8146C88.1046 18.806 87.9789 18.659 86.8897 17.3142C85.9527 16.2747 84.7503 15.5117 83.4124 15.1079C80.4996 14.0136 77.3703 13.6249 74.2794 13.9732C69.596 14.3387 64.982 15.328 60.5588 16.9149C60.408 16.9667 60.2541 17.0088 60.098 17.041C55.8605 18.3865 51.9156 20.5255 48.4722 23.3447C43.9878 27.0615 40.406 31.7538 37.9985 37.0658C37.382 38.4997 37.0068 40.0263 36.8883 41.5834C36.7207 42.9913 36.8883 43.1804 38.3127 42.9282C39.2763 42.7391 40.2399 42.55 41.2244 42.4239C41.6853 42.4239 42.2299 42.2978 42.4394 43.0753C42.1211 43.3705 41.7428 43.5929 41.3305 43.7271C40.9182 43.8613 40.4818 43.9042 40.0514 43.8528C39.3268 43.8154 38.605 43.9675 37.9566 44.294C37.6269 44.4655 37.3744 44.7561 37.2499 45.1071C37.1255 45.4581 37.1385 45.8434 37.2863 46.1851C37.5377 47.0676 38.1452 47.0256 38.8574 46.8365C40.198 46.4793 41.5596 46.1851 42.9002 45.8699C43.4239 45.7439 44.1571 45.2396 44.3875 45.8699C44.6179 46.5003 43.6753 46.7525 43.1306 46.9206C42.2718 47.1727 41.3711 47.3198 40.5122 47.5719C39.6534 47.8241 39.1297 47.5719 38.8574 48.3074C40.9521 51.06 40.9521 51.06 43.7591 49.5891C44.9112 48.9798 46.1052 48.4334 47.2782 47.8661C47.5924 47.719 47.9485 47.656 48.158 47.9922C48.3675 48.3284 48.158 48.7907 47.7181 48.9588C47.2782 49.1269 46.5241 49.4631 45.9376 49.7362C44.8483 50.2615 43.6334 50.5767 43.0049 51.7324C43.539 52.4014 44.2734 52.8803 45.0997 53.0982C47.0965 53.8815 49.2523 54.1698 51.3839 53.9387C53.6672 53.7496 55.9504 53.5184 58.2337 53.2873C59.1554 53.1402 59.7419 53.4344 59.5534 54.5901ZM186.432 55.6617C187.186 56.145 186.955 56.7543 186.934 57.2796C186.582 64.0095 185.168 70.6406 182.745 76.9262C182.543 77.3685 182.312 77.7968 182.054 78.2079C179.404 82.9006 175.076 86.4082 169.946 88.0207C164.255 90.1219 158.334 91.5327 152.308 92.2232C148.131 92.8738 143.87 92.7456 139.74 91.845C136.807 91.0885 133.875 90.3531 130.9 89.7437C125.559 88.5285 120.131 87.7346 114.666 87.3693C112.216 87.28 109.778 87.7565 107.541 88.762C105.304 89.7676 103.327 91.2752 101.762 93.1687C101.119 93.9075 100.651 94.7829 100.394 95.7291C100.136 96.6753 100.095 97.6678 100.275 98.6319C100.736 103.108 103.627 106.091 106.559 109.138C106.785 109.046 107.003 108.933 107.209 108.802L108.193 107.709C111.053 104.103 114.617 101.121 118.667 98.9471C119.387 98.445 120.239 98.1689 121.115 98.1539C121.992 98.1389 122.853 98.3858 123.589 98.8631C125.314 100.169 126.494 102.071 126.899 104.2C127.556 107.013 127.627 109.932 127.109 112.773C126.815 114.118 126.669 115.526 126.417 116.976C126.271 117.753 126.417 118.3 127.255 118.426C129.12 118.699 130.984 118.951 132.848 119.161C133.393 119.161 134 119.161 134.231 118.468C135.541 114.845 137.219 111.367 139.237 108.088C140.733 105.422 142.9 103.198 145.521 101.637C148.307 99.7876 150.235 100.124 152.832 102.351C154.925 104.22 156.388 106.694 157.021 109.432C157.608 111.534 158.111 113.635 158.53 115.904C158.739 116.997 159.263 117.27 160.226 116.997L164.542 115.673C164.824 115.624 165.093 115.517 165.332 115.359C165.571 115.201 165.776 114.996 165.933 114.755C166.09 114.515 166.196 114.245 166.245 113.962C166.294 113.679 166.285 113.389 166.217 113.109C166.105 111.309 166.225 109.501 166.573 107.73C166.609 107.424 166.728 107.133 166.916 106.888C167.104 106.644 167.355 106.456 167.642 106.343C167.209 107.757 167.039 109.239 167.139 110.714C167.998 114.391 167.663 114.412 171.056 112.815C171.58 112.584 172.104 112.311 172.606 112.038C175.658 110.634 178.483 108.778 180.985 106.533C182.493 105.041 182.535 105.02 180.985 103.465C179.779 102.263 178.358 101.3 176.796 100.628C175.386 99.9352 173.761 99.8291 172.274 100.333C170.787 100.837 169.559 101.91 168.857 103.318C168.605 103.759 168.438 104.305 167.767 104.536C167.857 103.528 168.181 102.554 168.713 101.694C169.246 100.834 169.973 100.111 170.834 99.5836C171.696 99.0562 172.67 98.7392 173.676 98.6578C174.682 98.5765 175.693 98.7332 176.628 99.1152C178.749 99.9597 180.712 101.161 182.431 102.666C183.646 103.675 183.75 103.654 184.777 102.414C187.877 98.695 190.705 94.7657 193.428 90.7523C194.468 89.181 195.279 87.4687 195.837 85.6673C197.42 80.3008 198.023 74.6914 197.617 69.1096C197.647 68.5744 197.526 68.0417 197.266 67.5731C197.007 67.1045 196.62 66.7193 196.151 66.462C193.931 65.6846 193.386 63.6254 192.611 61.9864C191.124 58.7925 190.747 54.8212 194.433 52.2787C194.92 51.9787 195.302 51.5348 195.528 51.008C195.753 50.4813 195.809 49.8975 195.69 49.337C195.565 48.5175 195.439 47.698 195.25 46.9206C194.852 45.2186 194.685 45.0715 192.904 45.2396C191.689 45.3656 190.495 45.7018 189.28 45.8069C185.795 46.4039 182.213 46.0482 178.911 44.7773C178.262 44.5592 177.677 44.1849 177.205 43.6871C176.734 43.1893 176.391 42.5832 176.207 41.9219C176.023 41.2605 176.003 40.564 176.15 39.8933C176.296 39.2225 176.604 38.598 177.047 38.0744C178.759 35.658 180.993 33.6611 183.583 32.2329C184.819 31.6026 185.992 30.8881 187.29 30.1317C186.725 29.1441 186.264 28.2826 185.761 27.4841C184.483 25.3829 183.667 23.2817 182.137 21.3485C180.608 19.4154 180.273 19.2473 177.948 20.7182C175.036 22.6723 172.125 24.6685 169.171 26.5806C166.792 28.2113 163.987 29.103 161.106 29.1441C160.553 29.1902 159.997 29.1054 159.483 28.8964C158.969 28.6874 158.511 28.3601 158.146 27.9409C157.781 27.5217 157.52 27.0223 157.383 26.4831C157.245 25.9439 157.237 25.3799 157.357 24.8366C157.53 23.7877 157.811 22.7597 158.195 21.7688C159.737 17.6978 161.528 13.726 163.557 9.87579C164.353 8.40492 164.29 8.25784 162.929 7.77455C159.916 6.48922 156.797 5.46977 153.607 4.72776C152.434 4.47562 151.198 3.63512 150.067 4.09739C148.936 4.55966 149.187 6.19863 148.643 7.33329C148.643 7.56443 148.475 7.81658 148.37 8.0267C146.736 11.2416 145.27 14.5615 143.406 17.6504C141.465 21.0978 138.746 24.0412 135.467 26.2444C131.633 28.6818 126.962 27.5682 125.496 23.7019C123.068 17.8952 122.619 11.4471 124.218 5.35813C124.413 4.66758 124.567 3.96592 124.679 3.2569C124.867 2.29033 124.427 1.93312 123.464 1.95413C121.093 2.07379 118.734 2.36168 116.405 2.81564C116.227 2.83113 116.054 2.88254 115.897 2.96677C115.74 3.05099 115.601 3.16629 115.49 3.30571C115.378 3.44512 115.296 3.60576 115.248 3.77794C115.2 3.95012 115.187 4.13027 115.211 4.30752C115.051 8.2414 114.617 12.1593 113.912 16.0324C113.596 18.307 112.733 20.4704 111.398 22.3361C109.785 24.8156 107.858 25.0047 105.114 24.1852C104.326 23.9261 103.609 23.4873 103.019 22.9034C102.693 22.5314 102.262 22.2677 101.783 22.1476C101.304 22.0275 100.8 22.0566 100.338 22.231L92.4407 24.8576C91.9799 25.0257 91.3305 25.1938 91.2677 25.6771C90.7343 27.3157 90.3349 28.9953 90.0737 30.699C93.1948 30.573 96.0856 29.5644 99.102 30.0687C99.0941 30.1921 99.0616 30.3127 99.0065 30.4233C98.9513 30.5339 98.8746 30.6323 98.7808 30.7126C98.6871 30.793 98.5782 30.8536 98.4607 30.891C98.3431 30.9283 98.2193 30.9417 98.0965 30.9302C96.5464 31.0983 94.9963 31.3084 93.4462 31.3714C92.226 31.2823 91.0116 31.6095 90.0001 32.2999C88.9886 32.9903 88.2394 34.0034 87.8742 35.1747C86.6865 38.3538 84.804 41.2257 82.3651 43.5796C81.1082 44.8613 79.7466 46.017 78.3851 47.2988C79.1549 48.0535 79.7797 48.9438 80.2284 49.9253C80.3541 50.2405 80.4798 50.5977 80.2284 50.8499C80.1465 50.9119 80.0508 50.9528 79.9495 50.9691C79.8482 50.9854 79.7445 50.9766 79.6474 50.9434C79.5502 50.9103 79.4627 50.8538 79.3924 50.7789C79.322 50.7039 79.2711 50.6129 79.2439 50.5137C78.3432 48.5805 76.5836 48.2864 74.7821 47.9712C73.3218 47.7823 71.8434 47.7823 70.3832 47.9712C68.3981 48.1809 66.5049 48.9186 64.8992 50.1081C63.2936 51.2976 62.0338 52.8957 61.2501 54.7372C60.946 55.6762 60.9186 56.6833 61.1713 57.6375C61.424 58.5917 61.946 59.4525 62.6745 60.1163C62.8221 60.2613 63.0007 60.3707 63.1966 60.4362C63.3926 60.5018 63.6009 60.5217 63.8057 60.4945C64.3084 60.3475 64.2456 59.8642 64.2456 59.4649C64.1771 58.479 64.2907 57.4888 64.5807 56.5442C64.874 55.7668 64.8531 54.2959 65.9423 54.5901C67.0316 54.8842 65.9423 56.0189 65.9423 56.6913C64.874 60.3895 66.5288 62.2806 70.3413 61.5872L71.0535 61.4191C72.6036 61.0198 72.7293 60.9778 72.2265 59.4439C71.8057 57.9323 71.8495 56.3285 72.3522 54.8422C72.3675 54.6786 72.442 54.5263 72.5617 54.414C72.6813 54.3017 72.8378 54.2373 73.0016 54.2329C73.4834 54.2329 73.5043 54.6531 73.5043 54.9263C73.5043 55.7457 73.5043 56.5652 73.5043 57.3847C73.5043 58.2042 73.5043 59.4859 74.4051 59.7801C75.3058 60.0743 76.018 59.2548 76.7302 58.7295C76.9816 58.5404 77.1701 58.2462 77.4215 58.0361C77.9871 57.5738 78.3851 56.8804 79.1601 56.7123C81.3078 56.1037 83.4081 55.3382 85.4443 54.422C90.7205 52.5831 95.5876 49.728 99.7723 46.017C100.149 45.6598 100.422 45.0084 101.448 45.3867C99.2277 49.295 95.0592 50.5347 92.1684 53.2663C94.1866 54.0784 96.2975 54.636 98.4526 54.9263C100.329 55.0896 102.196 55.3491 104.046 55.7037C109.324 56.8506 114.681 57.6022 120.07 57.952C124.721 58.2882 129.371 58.6454 134 59.1497C137.059 59.4649 137.394 59.1498 136.409 56.2921C135.236 52.9628 134.703 49.4405 134.838 45.912C135.097 41.7743 136.553 37.802 139.028 34.4813C139.53 33.7668 140.012 32.1699 140.955 32.8633C141.897 33.5567 140.536 34.5233 140.012 35.3007C137.518 39.0242 136.217 43.4228 136.284 47.9081C136.522 51.1469 137.184 54.3402 138.253 57.4057C139.761 63.1001 147.113 67.0294 152.329 66.1048C156.298 65.5422 160.173 64.4467 163.85 62.8479C164.269 62.6588 164.772 62.4277 165.065 63.1001C165.065 63.6884 164.5 63.8985 164.06 64.0666C158.654 66.7313 152.641 67.913 146.632 67.4916C144.618 67.3195 142.597 67.2703 140.578 67.3446C137.142 67.3446 136.074 68.2061 134.964 71.421C134.614 72.2286 134.554 73.133 134.795 73.9799C135.035 74.8267 135.562 75.5636 136.284 76.0647C137.038 74.0895 138.022 72.3035 140.473 71.8622C140.473 72.9759 139.782 73.186 139.321 73.6062C138.806 74.0235 138.398 74.5572 138.128 75.1634C137.859 75.7697 137.736 76.4314 137.771 77.0943C137.771 78.271 138.441 78.6702 140.41 79.1955C141.499 79.4267 141.814 78.9644 142.107 78.0188C142.21 77.393 142.475 76.8053 142.875 76.3148C143.276 75.8242 143.799 75.4481 144.39 75.2242C144.788 76.2748 144.097 76.8001 143.846 77.4515C142.882 79.7208 143.091 80.2251 145.459 80.5823C149.996 81.2842 154.594 81.5166 159.179 81.2757C163.369 81.1749 167.481 80.1186 171.203 78.1869C176.293 75.2872 180.713 71.8832 183.017 66.1469C184.125 63.6821 184.907 61.0825 185.342 58.4143C185.447 57.3007 185.426 56.2711 186.432 55.6617ZM34.3537 41.3943C32.0914 43.0753 30.1642 44.7983 27.8809 46.1431C25.5977 47.4879 23.0421 48.8117 20.7379 50.0934C19.693 50.7304 18.5133 51.1117 17.2942 51.2066C16.0751 51.3015 14.8509 51.1073 13.7205 50.6397C12.5242 50.0729 11.1671 49.9465 9.88716 50.2825C8.05295 50.7496 6.36073 51.6603 4.9585 52.935C3.55627 54.2097 2.48671 55.8096 1.84337 57.5948C1.63405 58.2986 1.58185 59.04 1.69046 59.7664C1.79907 60.4927 2.06583 61.1861 2.47179 61.7973C2.72368 60.5781 3.30408 59.4515 4.14986 58.5401C4.99563 57.6287 6.07438 56.9675 7.26874 56.6283C7.64579 57.7839 6.89169 58.1412 6.30516 58.5194C5.59419 58.9215 4.98496 59.4823 4.52463 60.1583C4.19466 60.5359 3.97855 60.9999 3.9015 61.496C3.82445 61.9922 3.88965 62.5001 4.08948 62.9605C4.28932 63.4208 4.61555 63.8147 5.03012 64.0962C5.44468 64.3776 5.93049 64.535 6.43084 64.5499C7.39442 64.76 7.81337 64.5499 7.72958 63.4573C7.7409 62.6675 7.93623 61.8914 8.29995 61.1909C8.66367 60.4904 9.1857 59.8849 9.82432 59.4229C10.1804 59.0867 10.5575 58.6455 11.0812 59.0237C11.6048 59.4019 11.2487 59.9272 10.9136 60.2634C10.2851 60.9159 9.81866 61.7078 9.552 62.5748C9.07021 64.1087 9.80337 65.1803 11.3325 64.9071C15.8991 64.0666 19.3554 63.2682 20.696 57.4057C20.8217 56.8804 20.696 56.208 21.6177 56.145C22.1623 57.6789 20.4237 59.0027 21.1778 60.6416C26.2052 59.7171 31.2325 59.1077 36.2389 58.5404C38.5851 58.2462 40.9521 57.889 43.2563 57.4267C44.9616 57.2136 46.5767 56.538 47.9276 55.4726C46.188 55.0344 44.4967 54.422 42.8793 53.6445C40.5332 52.5729 40.5541 52.5519 38.8574 54.422C38.4454 54.9301 38.0048 55.4142 37.5377 55.8718C37.4473 55.9819 37.3337 56.0705 37.2052 56.1313C37.0766 56.1922 36.9362 56.2237 36.7941 56.2237C36.6519 56.2237 36.5115 56.1922 36.3829 56.1313C36.2544 56.0705 36.1408 55.9819 36.0504 55.8718L39.8 51.8795C39.1297 50.7868 37.9147 50.4086 37.2444 49.5261C37.0431 49.2216 36.7318 49.0076 36.3761 48.9292C36.0204 48.8508 35.6482 48.9141 35.3382 49.1058C32.6791 49.9456 30.2245 51.3341 28.1323 53.1822C27.7553 53.5394 27.3363 54.3379 26.7707 53.7286C26.2052 53.1192 26.9593 52.6359 27.4411 52.2157C28.978 50.9858 30.6858 49.9877 32.5103 49.2529C33.4799 48.8245 34.4241 48.3404 35.3382 47.8031C36.1971 47.2988 35.8619 46.5423 35.5686 45.8489C35.2754 45.1555 34.7098 45.2186 34.1233 45.4287C32.7912 45.8735 31.5647 46.5888 30.5203 47.5299C30.0595 47.9502 29.4939 48.7276 28.9283 47.9081C28.3627 47.0887 29.3473 46.8155 29.7872 46.4373C30.9193 45.5872 32.1775 44.9207 33.5158 44.4621C35.1916 43.7057 35.2125 43.6216 34.2699 41.3943H34.3537ZM124.448 13.1117C124.607 16.5289 125.358 19.8923 126.669 23.0505C126.925 23.7584 127.33 24.4027 127.857 24.9397C128.383 25.4768 129.019 25.8939 129.72 26.163C130.421 26.432 131.172 26.5466 131.922 26.499C132.671 26.4515 133.401 26.2428 134.063 25.8872C135.583 25.2687 136.944 24.3133 138.043 23.0926C141.697 18.9994 144.661 14.3366 146.82 9.28744C147.499 7.97533 147.939 6.55217 148.119 5.08497C148.119 4.03436 148.119 3.46702 146.862 3.21487C144.767 2.7526 142.505 2.60552 140.326 2.26932C136.165 1.67053 131.957 1.47351 127.758 1.68097C127.392 1.65422 127.03 1.76382 126.74 1.98874C126.45 2.21366 126.253 2.53806 126.187 2.89969C125.087 6.19355 124.5 9.63818 124.448 13.1117ZM141.206 119.581C143.626 119.579 146.039 119.34 148.412 118.867C150.696 118.765 152.967 118.463 155.199 117.963C156.707 117.564 156.938 117.396 156.749 115.862C156.561 114.328 156.121 113.13 156.016 111.66C155.817 109.443 155.036 107.319 153.754 105.503C151.429 101.994 148.601 100.691 145.605 102.771C140.347 106.47 137.75 111.912 135.739 117.774C135.383 118.762 135.927 119.329 136.933 119.476C138.335 119.676 139.755 119.712 141.164 119.581H141.206ZM161.965 28.2616C164.601 28.0948 167.129 27.152 169.234 25.551C172.166 23.6179 174.994 21.5376 177.843 19.4784C179.079 18.5959 179.016 18.5749 178.053 17.3772C176.398 15.8031 174.656 14.3229 172.837 12.9436C171.093 11.5932 169.202 10.4443 167.202 9.51858C166.134 8.90922 165.421 9.32947 164.772 10.296C163.968 11.5314 163.267 12.8317 162.677 14.1833C161.048 17.3131 159.702 20.5831 158.655 23.9541C157.922 26.8958 159.2 28.3456 161.965 28.2616ZM125.977 108.886C125.454 106.364 125.831 103.108 123.359 100.649C122.039 99.3254 121.076 98.9471 119.484 99.7246C115.233 101.868 111.54 104.976 108.696 108.802C108.517 108.97 108.378 109.177 108.291 109.407C108.203 109.637 108.17 109.884 108.192 110.13C108.214 110.375 108.292 110.612 108.419 110.822C108.546 111.033 108.72 111.211 108.926 111.344C109.439 111.758 110.002 112.104 110.602 112.374C113.346 113.635 116.09 114.896 118.876 116.051C120.248 116.574 121.646 117.023 123.066 117.396C123.904 117.648 124.448 117.396 124.679 116.408C125.37 113.953 125.805 111.432 125.977 108.886ZM103.857 21.3485C106.077 24.2272 109.261 24.1642 110.812 21.2225C113.244 16.0104 114.29 10.2555 113.849 4.51764C113.849 3.34095 113.325 3.0888 111.922 3.61411C108.253 4.72069 104.651 6.03967 101.134 7.56443C99.1858 8.57302 99.0392 8.78315 99.4372 10.9684C99.9635 13.4488 100.735 15.8702 101.741 18.1967C102.663 20.2979 102.789 20.2979 105.051 19.8356C105.491 19.6171 105.974 19.5034 106.465 19.5034C106.956 19.5034 107.439 19.6171 107.879 19.8356C106.601 20.9913 105.093 20.508 103.857 21.3485ZM186.096 44.9244C188.222 45.1194 190.366 44.8543 192.381 44.1469C194.203 43.6426 194.475 43.3695 193.575 41.8146C192.004 38.6627 190.307 35.5109 188.694 32.4641C188.639 32.3088 188.551 32.1675 188.436 32.0505C188.32 31.9335 188.18 31.8436 188.026 31.7873C187.872 31.7311 187.707 31.7098 187.544 31.7251C187.38 31.7404 187.222 31.7918 187.081 31.8757C186.019 32.2947 184.983 32.7789 183.981 33.3256C181.49 34.7132 179.342 36.645 177.697 38.9779C177.446 39.3058 177.266 39.6816 177.166 40.0822C177.066 40.4828 177.049 40.8996 177.116 41.3071C177.182 41.7145 177.331 42.104 177.554 42.4514C177.776 42.7989 178.067 43.097 178.409 43.3274C179.107 43.9021 179.933 44.2987 180.818 44.4831C182.534 44.961 184.325 45.1107 186.096 44.9244ZM80.794 12.5233C80.7723 12.2253 80.7232 11.9298 80.6474 11.6408C78.7412 7.56443 75.1592 5.00092 71.9333 2.14324C70.9697 1.30275 70.0061 1.59692 69.1682 2.66855C67.5789 4.64988 66.352 6.8979 65.5443 9.30845C64.9991 10.3147 64.6373 11.4105 64.476 12.5444C64.476 13.8261 64.6436 14.0572 65.8376 13.721C67.2542 13.3284 68.7071 13.082 70.1737 12.9856C73.688 12.4603 77.2475 12.3053 80.794 12.5233ZM35.6105 38.5997C36.1552 37.423 36.4275 36.7506 36.7836 36.1202C38.3865 32.7083 40.4596 29.5395 42.9421 26.7067C45.9585 23.828 45.8957 23.786 42.9421 20.8022C41.6762 19.3854 40.0104 18.3887 38.1661 17.9445C37.7622 17.8149 37.3247 17.8398 36.938 18.0144C36.5513 18.189 36.2426 18.5009 36.0714 18.8901C35.4525 20.1409 35.1028 21.5083 35.0449 22.9034C34.1365 28.1176 34.3291 33.4649 35.6105 38.5997ZM100.966 20.1298C100.526 18.8691 100.045 17.5663 99.6047 16.2425C99.3115 15.36 98.8297 15.2339 97.929 15.4651C95.9491 15.9443 94.0304 16.6493 92.2103 17.5663C90.1156 18.6169 90.1156 18.6169 90.6812 20.9913C90.8351 21.5424 90.9471 22.1043 91.0163 22.6723C91.163 23.786 91.7914 23.9961 92.7549 23.7019C94.8497 23.0505 96.9444 22.4202 99.0392 21.7478C99.5604 21.5265 100.065 21.2666 100.547 20.9703C100.717 20.9168 100.86 20.7995 100.946 20.6429C101.032 20.4863 101.054 20.3025 101.008 20.1298H100.966ZM89.6547 17.5453C89.8284 17.5706 90.0048 17.5706 90.1784 17.5453C92.8178 16.4737 95.4362 15.4441 98.0546 14.2674C98.2095 14.2229 98.3521 14.1433 98.4712 14.0346C98.5904 13.9259 98.683 13.791 98.7417 13.6406C98.8005 13.4902 98.8239 13.3282 98.8101 13.1672C98.7963 13.0062 98.7456 12.8506 98.6621 12.7125C98.5155 12.1661 98.327 11.6408 98.2013 11.0735C97.9499 9.98085 97.4681 9.70769 96.2951 10.1069C93.4462 11.0525 91.3934 13.2378 88.8587 14.6666C88.3769 14.9398 87.7276 15.255 88.0208 15.9484C88.146 16.3332 88.3647 16.6807 88.6573 16.9595C88.9499 17.2383 89.3071 17.4396 89.6966 17.5453H89.6547ZM196.067 53.0141C195.011 53.5131 194.135 54.3291 193.561 55.3492C192.986 56.3693 192.743 57.5432 192.862 58.7085C192.921 60.1534 193.409 61.5478 194.264 62.7123C195.119 63.8768 196.301 64.7583 197.659 65.2433C197.136 61.1459 196.612 57.2166 196.067 53.0141Z" fill="black"/>
<path d="M61.6062 40.3647C61.1585 40.3938 60.7104 40.3155 60.2988 40.1365C59.8872 39.9575 59.524 39.6828 59.2392 39.3351C59.0706 39.217 58.933 39.0598 58.838 38.8769C58.7429 38.694 58.6933 38.4908 58.6933 38.2845C58.6933 38.0783 58.7429 37.8751 58.838 37.6922C58.933 37.5092 59.0706 37.352 59.2392 37.2339C61.3018 35.3443 63.9497 34.224 66.7383 34.061C67.6391 34.061 68.6236 34.1661 68.9587 35.1957C69.102 35.6708 69.0876 36.1797 68.9176 36.6458C68.7476 37.1119 68.4312 37.5101 68.0161 37.7802C66.1702 39.2395 63.9454 40.1365 61.6062 40.3647Z" fill="black"/>
<path d="M70.5507 25.3198C70.9927 25.3018 71.4319 25.3965 71.8275 25.5949C72.2231 25.7933 72.5622 26.089 72.8131 26.4544C72.9208 26.6278 72.9778 26.828 72.9778 27.0323C72.9778 27.2366 72.9208 27.4367 72.8131 27.6101C72.7679 27.7035 72.7018 27.7851 72.62 27.8486C72.5382 27.9121 72.4428 27.9557 72.3414 27.976C72.24 27.9964 72.1352 27.9929 72.0353 27.9659C71.9354 27.9389 71.8432 27.889 71.7657 27.8202C70.2365 26.7066 68.9797 27.5051 67.7438 28.3666C67.1542 28.7889 66.6006 29.2598 66.089 29.7744C65.691 30.1736 65.3139 30.783 64.7064 30.2157C64.099 29.6483 64.7064 29.2701 64.9159 28.9129C66.2805 27.0508 68.2908 25.7689 70.5507 25.3198Z" fill="black"/>
<path d="M58.1918 32.6532C58.1918 33.1155 57.9614 33.4097 57.6053 33.3887C57.2492 33.3676 56.495 33.1785 55.9295 33.1155C55.0037 32.9279 54.0445 32.9971 53.155 33.3155C52.2655 33.6339 51.4794 34.1895 50.8812 34.9226C50.62 35.3446 50.2413 35.6806 49.7919 35.8891C49.5673 35.9629 49.3252 35.9629 49.1006 35.8891C48.7236 35.7 48.8283 35.3428 48.9749 35.0486C49.777 33.6577 51.0267 32.5818 52.5189 31.9976C54.0111 31.4134 55.657 31.3556 57.1863 31.8337C57.6262 31.9808 58.087 32.191 58.1918 32.6532Z" fill="black"/>
<path d="M74.9078 11.0735C73.9233 11.3886 73.609 10.6952 73.1901 10.254C72.7711 9.81271 72.2684 9.09829 71.7657 8.57299C71.2629 8.04768 70.4669 7.9216 70.1108 8.90918C69.7547 9.89676 69.629 10.4641 69.3777 11.2416C69.3777 11.5357 69.0844 11.8299 68.6864 11.8089C68.2884 11.7879 68.1837 11.4097 68.2256 11.1155C68.3812 9.57036 68.9057 8.0856 69.7547 6.78694C69.8361 6.64191 69.9467 6.51547 70.0794 6.41569C70.2122 6.31592 70.3642 6.24499 70.5258 6.20743C70.6874 6.16986 70.8551 6.16649 71.018 6.19753C71.181 6.22857 71.3358 6.29334 71.4724 6.3877C72.35 6.87147 73.112 7.54129 73.7053 8.35052C74.2986 9.15975 74.7089 10.089 74.9078 11.0735Z" fill="black"/>
<path d="M36.0923 28.9969C36.3272 27.0294 36.7696 25.0924 37.412 23.2185C37.6843 22.6092 37.9776 21.7477 38.9202 21.8737C39.3555 21.8746 39.7819 21.9969 40.1519 22.227C40.5218 22.457 40.8206 22.7858 41.0149 23.1765C41.2244 23.6178 41.392 24.08 41.5596 24.5423C41.631 24.6397 41.6696 24.7575 41.6696 24.8785C41.6696 24.9995 41.631 25.1173 41.5596 25.2147C41.4376 25.3211 41.2814 25.3797 41.1197 25.3797C40.958 25.3797 40.8018 25.3211 40.6798 25.2147C38.5851 23.8279 38.5851 23.8279 38.2289 26.2653C38.0614 27.2319 37.9776 28.1985 37.7681 29.165C37.6634 29.6903 37.5586 30.4258 36.7836 30.2997C36.0085 30.1736 36.1133 29.5222 36.0923 28.9969Z" fill="black"/>
</g>
<defs>
<clipPath id="clip0_19_79">
<rect width="199" height="151" fill="white"/>
</clipPath>
</defs>
</svg>
