<svg width="220" height="269" viewBox="0 0 220 269" fill="none" xmlns="http://www.w3.org/2000/svg">
<path d="M111.215 232.287C117.801 238.833 124.06 245.767 131.065 251.84C140.43 260.303 152.512 265.138 165.13 265.475C170.69 265.649 176.217 264.566 181.299 262.307C195.345 255.583 201.5 243.224 202.67 228.207C203.914 217.558 202.849 206.767 199.547 196.567C195.932 186.651 191.989 176.79 184.313 168.962C167.073 151.383 149.925 133.715 132.867 115.958C127.697 110.602 122.771 105.009 117.633 99.6196C116.432 98.3941 115.031 97.3823 113.49 96.6279C110.091 94.934 106.332 91.8856 103.188 92.3781C100.397 92.8155 98.4075 97.467 95.77 99.9451C74.932 119.518 58.0797 142.523 40.4883 164.829C32.9327 174.41 24.9222 184.039 22.0992 196.746C18.5153 212.876 16.7852 228.941 20.4403 245.213C22.7504 255.498 38.0694 267.043 50.2802 268.457C65.233 270.189 76.9414 264.368 87.1897 253.987C91.0098 250.118 96.0917 247.525 100.171 243.873C104.158 240.304 107.599 236.128 111.215 232.287ZM47.3823 203.551C44.5084 202.003 42.4606 200.899 40.4124 199.796C39.9861 200.355 39.5596 200.914 39.1328 201.474C48.7011 216.005 63.1046 226.327 74.1644 239.807C74.1212 237.209 73.2561 234.692 71.6931 232.617C65.2882 225.096 58.5047 217.896 52.1493 210.335C51.426 209.509 50.8964 208.533 50.5992 207.477C50.302 206.42 50.2447 205.311 50.4316 204.23C52.8118 200.198 55.4885 196.35 58.4396 192.715C61.5635 195.905 64.2101 198.859 67.1279 201.516C67.7518 201.912 68.2759 202.448 68.6597 203.08C69.0434 203.712 69.2764 204.424 69.3407 205.161C69.405 205.897 69.2988 206.639 69.0303 207.328C68.7619 208.017 68.3384 208.635 67.7927 209.134C66.6539 211.278 65.8558 213.585 65.4271 215.974C66.0024 216.241 66.5778 216.507 67.1533 216.774C69.4986 214.601 71.8437 212.428 74.9712 209.531C78.049 214.612 80.8205 219.187 83.5918 223.763C84.079 222.967 84.3783 222.071 84.4668 221.142C84.5552 220.213 84.4305 219.277 84.1022 218.403C82.6806 215.416 80.6973 212.702 79.1062 209.787C78.3146 208.73 77.9353 207.421 78.039 206.104C80.4825 202.662 83.3276 199.505 86.033 196.249C88.0824 197.963 90.1216 199.69 92.2003 201.369C92.9334 201.442 93.6733 201.403 94.3945 201.252C93.4974 199.019 92.3168 196.911 90.8818 194.979C90.4363 194.708 90.0656 194.33 89.8033 193.88C89.5409 193.429 89.3953 192.92 89.3796 192.399C89.3639 191.878 89.4787 191.361 89.7134 190.896C89.9482 190.43 90.2955 190.031 90.7239 189.733C92.4056 187.778 93.9844 185.736 95.454 183.616C98.6529 186.338 100.731 188.106 102.81 189.874C102.406 187.907 101.595 186.047 100.428 184.412C99.521 183.215 99.0693 181.734 99.1539 180.234C101.589 175.714 104.489 171.446 107.274 167.011C108.52 168.199 109.347 168.988 110.174 169.777C110.557 169.538 110.941 169.298 111.326 169.059C110.791 166.825 109.792 164.728 108.395 162.905C103.152 158.786 106.577 155.556 108.806 151.496C112.06 154.474 115.009 157.173 117.957 159.871L118.924 158.981C113.444 151.851 107.922 144.754 102.503 137.578C99.4689 133.561 94.3948 130.214 97.5849 123.887C97.2853 122.862 96.8019 121.901 96.1583 121.049C94.803 123.071 93.8676 124.465 92.7137 126.186C89.9784 123.095 87.5066 120.303 84.8183 117.266C88.8095 113.721 92.4951 110.448 96.6746 106.736C108.492 119.098 119.965 131.1 131.438 143.102C128.421 137.626 124.981 132.394 121.15 127.454C115.177 119.957 108.754 112.82 102.698 105.386C102.293 104.81 102.035 104.143 101.946 103.444C101.858 102.745 101.942 102.035 102.192 101.376C102.763 100.792 103.454 100.341 104.218 100.054C104.982 99.7664 105.8 99.65 106.614 99.7128C108.228 100.332 109.634 101.395 110.669 102.779C118.646 111.254 126.379 119.963 134.52 128.275C146.781 140.795 159.287 153.077 171.733 165.415C185.217 178.338 193.376 195.84 194.603 214.477C195.351 224.725 196.561 234.975 190.631 244.423C186.406 251.154 181.041 256.806 173.275 258.361C163.406 260.455 153.11 258.807 144.387 253.738C132.261 246.399 121.897 236.484 114.028 224.694C111.311 220.679 109.249 220.495 106.71 224.558C105.208 227.685 103.272 230.585 100.959 233.172C91.4589 241.883 81.4946 250.075 71.1095 257.709C67.1727 260.504 62.5592 262.193 57.7487 262.6C52.9382 263.008 48.1064 262.119 43.7556 260.027C30.2081 253.972 24.2799 243.307 23.8224 228.528C22.7227 208.992 28.3201 189.666 39.6898 173.742C49.2814 160.537 60.0978 148.223 70.3244 135.572C74.0392 137.949 77.6611 140.267 81.8164 142.925C79.657 146.912 77.6541 150.609 75.4447 154.688C73.2638 152.513 70.9304 150.498 68.4623 148.656C67.0197 148.21 65.496 148.089 64.001 148.302C64.2357 149.686 64.7328 151.013 65.4656 152.211C67.7221 154.58 70.3206 156.623 72.7988 158.811C70.494 162.587 68.4411 165.95 66.2463 169.546C63.7319 168.057 61.1332 166.715 58.4633 165.527C57.2225 165.483 55.9897 165.741 54.8706 166.278C55.0428 167.376 55.4784 168.415 56.1401 169.307C58.3818 170.838 60.8815 171.992 63.8623 173.609C61.0522 177.424 58.4584 180.945 55.953 184.347C52.7308 182.41 50.4299 180.834 47.9473 179.634C46.7965 179.38 45.6063 179.361 44.4479 179.578C44.5168 180.918 44.9037 182.223 45.5766 183.384C47.8308 185.205 50.1952 186.885 52.6562 188.415C51.8392 190.452 51.1652 192.133 49.9692 195.114C52.2516 193.412 53.3739 192.574 54.4957 191.737L55.0796 192.228C52.5089 196.009 49.9432 199.784 47.3823 203.551ZM92.3287 173.641C88.1257 169.054 84.2222 164.894 80.4735 160.599C80.1612 160.191 79.9472 159.716 79.8481 159.212C79.749 158.707 79.7674 158.187 79.902 157.691C81.679 153.838 83.7143 150.105 86.1365 145.404C89.1468 148.784 92.4087 151.93 95.8943 154.818C100.281 157.898 99.5006 161.257 97.5374 164.964C96.076 167.722 94.331 170.331 92.3287 173.641ZM72.9038 202.186C69.1785 198.209 65.8753 194.921 62.8964 191.361C62.3801 190.775 62.0017 190.081 61.7888 189.329C61.576 188.577 61.5341 187.788 61.6663 187.018C63.4879 183.962 65.539 181.049 67.802 178.305C68.0461 178.256 68.2979 178.26 68.5404 178.316C68.7829 178.372 69.0105 178.48 69.2081 178.631C73.3318 182.466 77.4101 186.351 81.4112 190.139C79.7825 192.501 78.6227 194.217 77.4284 195.908C76.1404 197.731 74.8198 199.531 72.9038 202.186ZM83.9288 185.562C81.6193 183.772 79.7414 182.501 78.0761 180.995C69.7651 173.476 69.781 173.452 75.8969 164.054C76.4696 163.643 77.095 163.31 77.7563 163.066C81.9904 167.094 85.7739 171.57 89.04 176.415C89.9327 178.016 85.8804 182.386 84.0556 185.468C83.9051 185.722 83.4799 185.815 83.9288 185.562ZM102.283 154.564C101.727 154.507 101.184 154.364 100.671 154.141C98.3729 151.998 96.1018 149.825 93.8351 147.649C88.0491 142.095 88.1386 139.943 94.538 134.218C96.7191 137.116 99.1376 139.827 101.769 142.324C106.766 146.394 105.159 150.22 102.283 154.564ZM80.9392 122.175C91.7857 128.412 92.3192 130.829 85.1987 140.02C81.4745 137.285 77.7498 134.549 73.8854 131.71C76.2812 128.472 78.5217 125.443 80.9392 122.175ZM96.2169 177.742C95.5688 177.312 94.9207 176.883 94.2724 176.454C97.2378 171.823 100.203 167.192 103.168 162.561C103.646 162.852 104.123 163.143 104.6 163.433C104.111 169.553 98.8984 172.906 96.2169 177.742Z" fill="black"/>
<path d="M40.5241 31.4688C38.889 43.9094 43.2856 55.3267 49.0861 65.4362C54.1511 74.1088 61.0111 81.5987 69.2065 87.4042C77.0854 92.9275 91.5881 88.3653 94.142 77.2722C97.5276 62.5625 98.4065 47.7205 92.0816 33.1906C87.2652 22.662 79.1481 13.9903 68.9603 8.4895C66.5559 6.92341 63.8255 5.92713 60.9775 5.57664C58.1295 5.22615 55.2391 5.53071 52.5267 6.46709C49.0231 8.3481 46.0722 11.1125 43.9669 14.4861C41.8616 17.8597 40.675 21.7251 40.5248 25.6989C40.5194 27.622 40.5241 29.5456 40.5241 31.4688ZM50.1652 13.0754C50.8574 13.2034 51.5494 13.3312 52.2412 13.4587C60.9684 24.8416 70.5727 35.5243 80.9663 45.409C81.5675 44.8746 82.1688 44.34 82.7701 43.8051C74.0304 33.0446 65.2909 22.2842 56.5514 11.5237L57.3484 10.2824C61.2165 13.4159 65.2938 16.2818 69.552 18.8602C73.5672 20.8036 77.1204 23.5831 79.9731 27.0125C82.8259 30.4418 84.9123 34.4416 86.0923 38.7435C90.0604 50.4701 90.479 63.1072 87.2955 75.0707C86.7957 76.9624 85.8186 78.694 84.4579 80.1C83.0972 81.5059 81.3984 82.539 79.5241 83.1004C77.6498 83.6618 75.6628 83.7327 73.7532 83.3062C71.8437 82.8798 70.0756 81.9704 68.6182 80.665C61.4943 74.2529 54.6592 67.4102 51.0177 58.2506C47.867 50.3254 44.0382 42.4273 46.8052 33.0174C58.1355 37.0511 64.0531 47.5704 73.7942 53.1656C68.4701 45.9058 62.5472 39.1048 56.0878 32.8336C53.843 31.3142 51.4207 30.0753 48.8748 29.1444C47.6018 28.6029 46.5412 27.6592 45.8554 26.4577C47.0407 21.931 48.6729 17.5216 50.1652 13.0754Z" fill="black"/>
<path d="M177.309 52.9001C177.534 43.8767 175.929 34.9012 172.593 26.5143C169.256 18.1274 164.256 10.5028 157.894 4.09966C151.534 -2.45219 136.058 -0.597019 130.844 7.36865C123.622 18.2407 119.483 30.8677 118.868 43.9054C118.241 56.8525 120.284 69.7903 124.873 81.9134C127.923 90.3933 140.853 98.4483 147.713 95.8956C154.803 93.245 161.092 88.8174 165.979 83.0373C172.929 74.4888 176.906 63.9098 177.309 52.9001ZM124.082 40.6986C125.297 30.7194 128.76 21.1456 134.209 12.6978C136.64 9.23193 143.026 5.58497 146.458 6.47625C151.479 7.78006 155.763 12.7914 159.757 16.8219C161.551 19.3851 162.995 22.1766 164.049 25.1224C169.211 34.6933 171.348 45.6045 170.18 56.4155C169.544 62.3081 167.641 67.9935 164.602 73.0819C161.563 78.1703 157.459 82.5413 152.573 85.8953C147.791 89.2631 143.11 90.4206 137.552 87.1046C128.277 81.5702 125.61 72.3898 124.285 62.9315C123.707 55.534 123.639 48.1055 124.082 40.6986Z" fill="black"/>
<path d="M35.4184 128.836C45.2733 129.264 48.9241 126.042 49.2596 116.265C49.8058 108.347 47.4149 100.505 42.5439 94.2378C36.9648 87.3896 30.9286 80.9268 24.4768 74.8937C22.8672 73.3858 19.0495 74.1145 16.2413 74.0517C14.6181 74.3446 12.9766 74.5242 11.3285 74.5892C9.34363 74.0706 7.23507 74.3408 5.44502 75.3429C3.65496 76.345 2.32244 78.0013 1.72692 79.9644C0.679539 82.1018 0.0947064 84.436 0.0105736 86.8148C-0.0735592 89.1935 0.344893 91.5632 1.23865 93.7692C4.33277 101.107 8.05513 108.163 12.3642 114.86C14.7007 118.958 18.0442 122.393 22.0784 124.839C26.1126 127.284 30.7041 128.66 35.4184 128.836ZM10.3527 100.685C13.5942 103.64 16.8356 106.593 20.077 109.547L21.4552 108.204C19.2565 105.39 17.1238 102.522 14.8424 99.7776C11.8462 96.1727 8.45628 92.8537 5.82922 89.007C4.98337 87.7684 6.01345 85.2492 6.18478 83.3159C7.87057 83.3977 9.5268 83.79 11.0702 84.473C19.4728 90.5031 27.7215 96.7479 36.0436 102.941L37.0093 98.8591C38.2093 103.561 39.7945 108.155 41.7489 112.597C43.4581 115.748 43.9076 118.755 41.2998 120.463C38.5945 122.156 35.3834 122.853 32.2197 122.433C20.2323 120.288 15.3598 110.354 10.3527 100.685ZM14.6493 80.6713C25.611 81.9545 31.0045 88.3413 34.4903 96.9413C28.139 91.7332 21.7877 86.5247 14.6493 80.6713Z" fill="black"/>
<path d="M173.692 113.367C172.661 121.723 178.273 130.114 187.115 135.768C189.932 137.569 196.313 136.379 199.662 134.301C211.741 126.802 220.235 116.403 219.995 101.214C220.052 95.8165 219.293 90.4411 217.742 85.2705C214.967 76.9785 199.966 72.2872 192.535 77.622C181.508 85.5398 173.668 95.8009 173.692 113.367ZM198.348 80.6204C199.179 81.0833 200.011 81.5465 200.842 82.0099C195.121 85.4014 197.926 87.9073 200.173 90.8494C203.017 94.5739 205.408 98.6467 207.972 102.583C211.562 108.095 211.701 113.306 207.469 118.117C204.045 122.033 200.16 125.52 195.899 128.504C194.791 129.234 193.526 129.692 192.208 129.84C190.889 129.988 189.554 129.822 188.312 129.356C184.654 126.806 181.795 123.271 180.066 119.161C176.282 106.87 179.934 96.2285 189.699 87.7938C192.532 85.3459 195.462 83.0083 198.348 80.6204ZM212.559 100.437C212.197 100.498 211.836 100.558 211.475 100.619C208.56 95.7715 205.644 90.9239 202.656 85.9557C205.815 84.4055 208.803 83.4686 209.991 87.5477C211.212 91.7381 211.732 96.1321 212.559 100.437Z" fill="black"/>
<path d="M64.5716 252.634C63.0325 250.074 61.3387 247.609 59.4998 245.255C50.7997 235.317 41.9886 225.477 33.0663 215.736C31.6334 215.032 30.0479 214.696 28.4526 214.758C28.5099 216.156 28.8746 217.525 29.5208 218.766C40.1852 230.007 50.9764 241.127 61.7735 252.241C62.4106 252.704 63.1181 253.062 63.8689 253.3C64.103 253.078 64.3373 252.856 64.5716 252.634Z" fill="black"/>
<path d="M153.809 40.8979C151.757 37.1956 149.932 33.3429 147.599 29.8276C144.458 25.0954 141.011 20.5558 137.479 16.1055C136.419 15.5181 135.227 15.2102 134.016 15.2107C133.547 16.3651 133.388 17.6223 133.556 18.857C135.162 21.1109 136.906 23.2626 138.779 25.2994C143.335 30.8238 147.884 36.3541 152.427 41.8903L153.809 40.8979Z" fill="black"/>
<path d="M144.779 58.4694C143.352 46.4248 135.706 35.5564 129.666 36.4343C134.835 43.9716 139.807 51.2206 144.779 58.4694Z" fill="black"/>
<path d="M190.177 95.0925C195.514 102.699 200.094 109.225 204.674 115.751C205.445 108.421 196.852 96.0747 190.177 95.0925Z" fill="black"/>
</svg>
